<svg width="212" height="22" viewBox="0 0 212 22" fill="content">
    <g clip-path="url(#clip0)">
        <path d="M9.4573 18.8615C11.45 18.8615 13.1165 17.7384 13.9136 16.1805L16.6309 17.9196C15.2903 20.2745 12.8267 21.9049 9.31237 21.9049C3.04457 21.9049 -0.071225 17.7384 0.00123517 11.7242C0.0736953 5.71001 3.18949 1.57978 9.31237 1.54355C12.8267 1.50732 15.2903 3.1739 16.6309 5.52886L13.9136 7.26791C13.1165 5.71001 11.45 4.58688 9.4573 4.58688C5.3633 4.58688 3.69671 8.64465 3.69671 11.7967C3.69671 14.8762 5.3633 18.8615 9.4573 18.8615Z" fill="content"></path>
        <path d="M18.9067 1H22.1312V8.35472C23.0007 7.41273 24.4862 6.50698 26.7687 6.50698C30.283 6.50698 31.8771 8.49963 31.8771 12.2676V21.5787H28.6164V12.5936C28.6164 10.5647 27.8556 9.51407 25.6093 9.51407C24.1601 9.51407 22.8558 10.1662 22.1312 10.8908V21.5425H18.9067V1Z" fill="content"></path>
        <path d="M43.9435 12.8475C43.9797 12.6663 43.9797 12.4127 43.9797 12.304C43.9797 10.3476 42.7479 9.18825 40.9726 9.18825C38.6539 9.18825 37.7119 10.8186 37.5669 12.8837H43.9435V12.8475ZM45.139 17.6661L46.6969 19.8037C45.6463 20.9268 43.6174 21.9412 41.2986 21.9412C36.3351 21.9412 34.27 18.7168 34.27 14.2242C34.27 9.98531 36.4801 6.54346 40.9726 6.54346C45.3202 6.54346 47.023 9.69547 47.023 12.8475C47.023 13.6083 46.9505 14.659 46.8056 15.2749H37.5669C37.6394 17.6299 38.7988 19.1515 41.2986 19.1515C42.5305 19.1153 44.0159 18.6805 45.139 17.6661Z" fill="content"></path>
        <path d="M59.1031 12.8475C59.1394 12.6663 59.1393 12.4127 59.1393 12.304C59.1393 10.3476 57.9075 9.18825 56.1323 9.18825C53.8135 9.18825 52.8715 10.8186 52.7266 12.8837H59.1031V12.8475ZM60.2987 17.6661L61.8566 19.8037C60.8059 20.9268 58.7771 21.9412 56.4583 21.9412C51.4948 21.9412 49.4297 18.7168 49.4297 14.2242C49.4297 9.98531 51.6397 6.54346 56.1323 6.54346C60.4799 6.54346 62.1827 9.69547 62.1827 12.8475C62.1827 13.6083 62.1102 14.659 61.9653 15.2749H52.7266C52.7991 17.6299 53.9585 19.1515 56.4583 19.1515C57.6902 19.1153 59.1393 18.6805 60.2987 17.6661Z" fill="content"></path>
        <path d="M73.7793 10.6018C72.9822 9.69606 71.7504 9.00769 70.1563 9.00769C68.4535 9.00769 67.7289 9.84098 67.7289 10.8554C67.7289 11.6525 68.1636 12.2684 69.323 12.522L71.8229 13.1017C74.6488 13.7538 75.9531 15.203 75.9531 17.3406C75.9531 19.7318 74.2503 21.9418 69.794 21.9418C66.642 21.9418 64.8667 20.6013 63.9609 19.442L65.8811 17.4855C66.6782 18.4275 67.8376 19.442 69.9027 19.442C71.533 19.442 72.6562 18.826 72.6562 17.5942C72.6562 16.7247 71.9678 16.2175 70.7722 15.9276L68.1999 15.2755C65.7 14.6596 64.4319 13.1741 64.4319 11.1453C64.4319 9.00769 65.9898 6.50781 70.2288 6.50781C73.0547 6.50781 74.685 7.59471 75.627 8.64539L73.7793 10.6018Z" fill="content"></path>
        <path d="M87.2208 12.8475C87.257 12.6663 87.257 12.4127 87.257 12.304C87.257 10.3476 86.0252 9.18825 84.2499 9.18825C81.9312 9.18825 80.9892 10.8186 80.8443 12.8837H87.2208V12.8475ZM88.4164 17.6661L89.9743 19.8037C88.9236 20.9268 86.8947 21.9412 84.576 21.9412C79.6125 21.9412 77.5474 18.7168 77.5474 14.2242C77.5474 9.98531 79.7574 6.54346 84.2499 6.54346C88.5975 6.54346 90.3004 9.69547 90.3004 12.8475C90.3004 13.6083 90.2279 14.659 90.083 15.2749H80.8443C80.9168 17.6299 82.0761 19.1515 84.576 19.1515C85.8441 19.1153 87.2933 18.6805 88.4164 17.6661Z" fill="content"></path>
        <path d="M99.2621 6.50781C101.871 6.50781 103.936 7.55849 104.987 9.65983L102.668 11.2902C101.979 10.0946 100.965 9.36999 99.4795 9.36999C96.871 9.36999 95.8927 11.3989 95.8927 14.1886C95.8927 16.9783 96.871 19.0072 99.4795 19.0072C100.965 19.0072 102.016 18.2826 102.704 17.1232L104.987 18.7536C103.936 20.8187 101.871 21.9056 99.2621 21.9056C94.516 21.9056 92.5596 18.4637 92.5596 14.1886C92.5233 10.0221 94.516 6.50781 99.2621 6.50781Z" fill="content"></path>
        <path d="M112.597 19.3689C114.01 19.3689 115.315 18.6805 116.112 17.8472V14.6952L114.083 14.9851C111.728 15.3111 110.387 16.0357 110.387 17.5212C110.387 18.753 111.148 19.3689 112.597 19.3689ZM116.329 21.5789V19.8037C115.387 20.8543 113.829 21.9412 111.51 21.9412C108.829 21.9412 107.09 20.3109 107.09 17.7023C107.09 14.5503 109.844 13.1736 114.083 12.8475L116.148 12.6301V11.4707C116.148 9.98532 115.496 9.15201 113.431 9.15201C111.619 9.15201 110.75 9.80416 110.75 10.7461V11.4707H107.887C107.851 11.1447 107.815 10.7824 107.815 10.4563C107.815 8.17381 109.88 6.54346 113.612 6.54346C117.199 6.54346 119.372 8.10135 119.372 11.4707V21.6152H116.329V21.5789Z" fill="content"></path>
        <path d="M131.808 21.5787L127.57 14.695L125.432 16.7601V21.5787H122.208V1H125.432V12.9197L131.627 6.83305H135.649L129.888 12.4487L135.504 21.5787H131.808Z" fill="content"></path>
        <path d="M145.667 12.8475C145.703 12.6663 145.703 12.4127 145.703 12.304C145.703 10.3476 144.471 9.18825 142.696 9.18825C140.377 9.18825 139.436 10.8186 139.291 12.8837H145.667V12.8475ZM146.863 17.6661L148.421 19.8037C147.37 20.9268 145.341 21.9412 143.022 21.9412C138.059 21.9412 135.994 18.7168 135.994 14.2242C135.994 9.98531 138.204 6.54346 142.696 6.54346C147.044 6.54346 148.747 9.69547 148.747 12.8475C148.747 13.6083 148.674 14.659 148.529 15.2749H139.291C139.363 17.6299 140.522 19.1515 143.022 19.1515C144.29 19.1153 145.74 18.6805 146.863 17.6661Z" fill="content"></path>
        <path d="M168.715 18.6805V21.5789H156.143V1.65234H159.657V18.6805H168.715Z" fill="content"></path>
        <path d="M175.973 19.3689C177.386 19.3689 178.691 18.6805 179.488 17.8472V14.6952L177.459 14.9851C175.104 15.3111 173.763 16.0357 173.763 17.5212C173.763 18.753 174.524 19.3689 175.973 19.3689ZM179.705 21.5789V19.8037C178.763 20.8543 177.205 21.9412 174.886 21.9412C172.205 21.9412 170.43 20.3109 170.43 17.7023C170.43 14.5503 173.184 13.1736 177.423 12.8475L179.488 12.6301V11.4707C179.488 9.98532 178.836 9.15201 176.77 9.15201C174.959 9.15201 174.089 9.80416 174.089 10.7461V11.4707H171.227C171.191 11.1447 171.155 10.7824 171.155 10.4563C171.155 8.17381 173.22 6.54346 176.952 6.54346C180.538 6.54346 182.712 8.10135 182.712 11.4707V21.6152H179.705V21.5789Z" fill="content"></path>
        <path d="M191.696 9.51407C189.994 9.51407 189.015 10.2749 188.508 10.8908V17.3398C189.052 18.0644 190.175 18.8977 191.696 18.8977C194.631 18.8977 195.428 16.8688 195.428 14.1515C195.428 11.4705 194.559 9.51407 191.696 9.51407ZM188.508 8.06487C189.233 7.26781 190.356 6.50698 192.421 6.50698C196.732 6.50698 198.725 9.40539 198.725 14.1515C198.725 18.789 196.588 21.9048 192.421 21.9048C190.139 21.9048 188.726 21.0715 187.929 20.2382L186.95 21.5787H185.248V1H188.472V8.06487H188.508Z" fill="content"></path>
        <path d="M209.907 10.6008C209.11 9.69508 207.878 9.00671 206.284 9.00671C204.581 9.00671 203.856 9.84001 203.856 10.8544C203.856 11.6515 204.291 12.2674 205.45 12.521L207.95 13.1007C210.776 13.7529 212.081 15.2021 212.081 17.3396C212.081 19.7308 210.378 21.9409 205.921 21.9409C202.769 21.9409 200.994 20.6004 200.088 19.441L202.009 17.4846C202.806 18.4265 203.965 19.441 206.03 19.441C207.66 19.441 208.784 18.8251 208.784 17.5932C208.784 16.7237 208.095 16.2165 206.9 15.9267L204.327 15.2745C201.827 14.6586 200.559 13.1732 200.559 11.1443C200.559 9.00671 202.117 6.50684 206.356 6.50684C209.182 6.50684 210.812 7.59374 211.754 8.64441L209.907 10.6008Z" fill="content"></path>
    </g>
    <defs>
        <clipPath id="clip0">
            <rect width="212" height="22" fill="content"></rect>
        </clipPath>
    </defs>
</svg>