<svg width="128" height="32" viewBox="0 0 128 32" fill="content"
    xmlns="http://www.w3.org/2000/svg">
    <path d="M98.1504 4.74105H100.992V27.2773H98.1504V4.74105ZM92.4928 4.74105H95.3088V27.2773H92.4928V4.74105ZM114.381 20.2859C114.381 24.2298 111.846 25.4334 109.21 25.4334C107.187 25.4334 105.984 24.3834 105.984 22.7956C105.984 20.4908 109.261 19.7225 114.381 19.2359V20.2859ZM116.941 21.003L116.966 17.1104C117.018 12.3726 115.021 10.2214 110.336 10.2214C107.11 10.2214 103.859 12.2446 103.629 15.8555H106.547C106.675 13.7811 108.006 12.5263 110.362 12.5263C112.486 12.5263 114.15 13.5251 114.15 16.5982V17.0079C107.315 17.7506 102.835 18.9286 102.835 22.8725C102.835 25.9456 105.446 27.687 108.595 27.687C111.565 27.687 113.28 26.7395 114.304 24.998C114.33 25.7663 114.406 26.5346 114.534 27.2773H117.376C117.018 25.6895 116.915 23.7944 116.941 20.9774V21.003ZM127.155 10.4775C124.954 10.5544 123.29 11.5787 122.445 13.4738V10.5544H119.68V27.2773H122.496V18.4933C122.496 14.7799 123.802 13.3714 126.413 13.3714C126.95 13.397 127.462 13.4226 128 13.5251V10.5032C127.718 10.4775 127.437 10.4775 127.155 10.4775ZM71.1424 6.38005H68.3008V10.5544H65.664V12.8336H68.3008V23.0773C68.3008 26.5602 69.0432 27.2773 72.2432 27.2773H74.3168V24.8956H72.8832C71.2704 24.8956 71.1424 24.4602 71.1424 22.7444V12.8336H74.3168V10.5544H71.1424V6.38005ZM57.4976 14.3702L54.8864 13.7811C52.7616 13.2946 51.2 12.3214 51.2 10.3239C51.2 7.78856 54.2464 7.02028 55.9872 7.02028C58.24 7.02028 60.8512 7.91661 61.5936 10.5032H64.6656C63.7696 6.17518 60.1856 4.35691 56.1408 4.35691C52.5056 4.35691 48 6.17518 48 10.5032C48 14.2421 51.072 15.9835 54.1696 16.6494L56.9856 17.2384C59.8272 17.9042 61.824 18.8262 61.824 21.2335C61.824 23.4615 59.9296 25.0236 56.576 25.0236C53.0688 25.0236 50.944 23.4103 50.3552 20.2859H47.2576C47.8464 24.7675 51.2 27.687 56.4992 27.687C60.9792 27.687 65.0752 25.331 65.0752 20.9261C65.0752 16.3933 60.928 15.0872 57.4976 14.3446V14.3702ZM77.7472 17.4433C78.0032 14.0628 80.3072 12.7056 82.7904 12.7056C85.8112 12.7056 87.5008 15.0616 87.6032 17.4433H77.7472ZM82.7904 10.2727C78.2336 10.2727 74.6752 13.6531 74.6752 18.9542C74.6752 23.8968 77.5936 27.687 82.8672 27.687C86.9376 27.687 89.6256 25.3053 90.3424 22.4371H87.4752C86.7584 24.0761 85.376 25.2029 82.8928 25.2029C80.4096 25.2029 77.824 23.4615 77.7472 19.8762H90.5984C90.9568 14.5494 87.936 10.2983 82.816 10.2983L82.7904 10.2727ZM37.8112 8.01905L7.9616 23.231L5.3504 24.5371L0 27.2773V30.5553L5.3248 27.8407L9.8816 25.5102L31.8976 14.2933C32.8448 21.4639 27.8016 28.0455 20.6336 28.9931C20.0704 29.0699 19.4816 29.1211 18.8928 29.1211C16.6656 29.1211 14.464 28.5321 12.4928 27.4309L12.3392 27.5334L9.5232 28.9419C16.6656 34.1406 26.6752 32.5528 31.872 25.3822C33.8432 22.6676 34.9184 19.3896 34.9184 16.0092C34.9184 15.5994 34.9184 15.1897 34.8672 14.7799C34.7904 13.6019 35.4048 12.5007 36.4544 11.9629L37.8112 11.2458V8.01905ZM32.4864 4.20326L27.9296 6.5081L5.9392 17.725C4.992 10.5544 10.0608 3.97277 17.2288 3.02523C20.0192 2.6667 22.8608 3.20449 25.3184 4.5874L27.9296 3.25571L28.3136 3.05084C21.1712 -2.14786 11.1616 -0.53447 5.9648 6.61053C3.968 9.35073 2.9184 12.6287 2.9184 16.0092C2.9184 16.4189 2.9184 16.8287 2.944 17.2384C3.0464 18.3908 2.432 19.5176 1.3824 20.0554L0 20.7469V24.0249L4.0448 21.9505L5.3504 21.2847L6.656 20.6444L29.824 8.81294L32.4352 7.48125L37.8112 4.74105V1.46306L32.4864 4.20326Z" fill="content"/>
</svg>
