<svg width="14" height="14" viewBox="0 0 14 14" fill="none"
    xmlns="http://www.w3.org/2000/svg">
    <path d="M7.00004 10.3335C7.18893 10.3335 7.34737 10.2695 7.47537 10.1415C7.60293 10.0139 7.66671 9.85572 7.66671 9.66683V7.66683H9.68337C9.87226 7.66683 10.0278 7.60283 10.15 7.47483C10.2723 7.34727 10.3334 7.18905 10.3334 7.00016C10.3334 6.81127 10.2694 6.65283 10.1414 6.52483C10.0138 6.39727 9.8556 6.3335 9.66671 6.3335H7.66671V4.31683C7.66671 4.12794 7.60293 3.97239 7.47537 3.85016C7.34737 3.72794 7.18893 3.66683 7.00004 3.66683C6.81115 3.66683 6.65293 3.73061 6.52537 3.85816C6.39737 3.98616 6.33337 4.14461 6.33337 4.3335V6.3335H4.31671C4.12782 6.3335 3.97226 6.39727 3.85004 6.52483C3.72782 6.65283 3.66671 6.81127 3.66671 7.00016C3.66671 7.18905 3.73049 7.34727 3.85804 7.47483C3.98604 7.60283 4.14449 7.66683 4.33337 7.66683H6.33337V9.6835C6.33337 9.87239 6.39737 10.0279 6.52537 10.1502C6.65293 10.2724 6.81115 10.3335 7.00004 10.3335ZM7.00004 13.6668C6.07782 13.6668 5.21115 13.4917 4.40004 13.1415C3.58893 12.7917 2.88337 12.3168 2.28337 11.7168C1.68337 11.1168 1.20849 10.4113 0.858707 9.60016C0.508485 8.78905 0.333374 7.92239 0.333374 7.00016C0.333374 6.07794 0.508485 5.21127 0.858707 4.40016C1.20849 3.58905 1.68337 2.8835 2.28337 2.2835C2.88337 1.6835 3.58893 1.20838 4.40004 0.858163C5.21115 0.508385 6.07782 0.333496 7.00004 0.333496C7.92226 0.333496 8.78893 0.508385 9.60004 0.858163C10.4112 1.20838 11.1167 1.6835 11.7167 2.2835C12.3167 2.8835 12.7916 3.58905 13.1414 4.40016C13.4916 5.21127 13.6667 6.07794 13.6667 7.00016C13.6667 7.92239 13.4916 8.78905 13.1414 9.60016C12.7916 10.4113 12.3167 11.1168 11.7167 11.7168C11.1167 12.3168 10.4112 12.7917 9.60004 13.1415C8.78893 13.4917 7.92226 13.6668 7.00004 13.6668Z" fill="content"/>
</svg>
