<svg width="16" height="12" viewBox="0 0 16 12" fill="none"
    xmlns="http://www.w3.org/2000/svg">
    <path d="M12.6666 7.33341C12.4777 7.33341 12.3195 7.26941 12.192 7.14141C12.064 7.01386 12 6.85564 12 6.66675L12 5.33341H10.6666C10.4777 5.33341 10.3195 5.26941 10.192 5.14141C10.064 5.01386 9.99996 4.85564 9.99996 4.66675C9.99996 4.47786 10.064 4.31941 10.192 4.19141C10.3195 4.06386 10.4777 4.00008 10.6666 4.00008H12V2.66675C12 2.47786 12.064 2.31941 12.192 2.19141C12.3195 2.06386 12.4777 2.00008 12.6666 2.00008C12.8555 2.00008 13.0137 2.06386 13.1413 2.19141C13.2693 2.31941 13.3333 2.47786 13.3333 2.66675V4.00008H14.6666C14.8555 4.00008 15.0137 4.06386 15.1413 4.19141C15.2693 4.31941 15.3333 4.47786 15.3333 4.66675C15.3333 4.85564 15.2693 5.01386 15.1413 5.14141C15.0137 5.26941 14.8555 5.33341 14.6666 5.33341L13.3333 5.33341L13.3333 6.66675C13.3333 6.85564 13.2693 7.01386 13.1413 7.14141C13.0137 7.26941 12.8555 7.33341 12.6666 7.33341ZM5.99996 6.00008C5.26663 6.00008 4.63885 5.73897 4.11663 5.21675C3.5944 4.69453 3.33329 4.06675 3.33329 3.33341C3.33329 2.60008 3.5944 1.9723 4.11663 1.45008C4.63885 0.927859 5.26663 0.666748 5.99996 0.666748C6.73329 0.666748 7.36107 0.927859 7.88329 1.45008C8.40551 1.9723 8.66663 2.60008 8.66663 3.33341C8.66663 4.06675 8.40551 4.69453 7.88329 5.21675C7.36107 5.73897 6.73329 6.00008 5.99996 6.00008ZM1.33329 11.3334C1.1444 11.3334 0.986181 11.2694 0.858626 11.1414C0.730626 11.0139 0.666626 10.8556 0.666626 10.6667L0.666626 9.46675C0.666626 9.08897 0.763959 8.74164 0.958626 8.42475C1.15285 8.1083 1.41107 7.86675 1.73329 7.70008C2.42218 7.35564 3.12218 7.09719 3.83329 6.92475C4.5444 6.75275 5.26663 6.66675 5.99996 6.66675C6.73329 6.66675 7.45551 6.75275 8.16663 6.92475C8.87774 7.09719 9.57774 7.35564 10.2666 7.70008C10.5888 7.86675 10.8471 8.1083 11.0413 8.42475C11.236 8.74164 11.3333 9.08897 11.3333 9.46675V10.6667C11.3333 10.8556 11.2693 11.0139 11.1413 11.1414C11.0137 11.2694 10.8555 11.3334 10.6666 11.3334L1.33329 11.3334Z" fill="content"/>
</svg>
