<svg width="22" height="17" viewBox="0 0 22 17" fill="none"
    xmlns="http://www.w3.org/2000/svg">
    <path d="M2 17C1.45 17 0.979333 16.8043 0.588 16.413C0.196 16.021 0 15.55 0 15C0 14.45 0.196 13.979 0.588 13.587C0.979333 13.1957 1.45 13 2 13H2.263C2.33767 13 2.41667 13.0167 2.5 13.05L7.05 8.5C7.01667 8.41667 7 8.33733 7 8.262V8C7 7.45 7.196 6.979 7.588 6.587C7.97933 6.19567 8.45 6 9 6C9.55 6 10.021 6.19567 10.413 6.587C10.8043 6.979 11 7.45 11 8C11 8.03333 10.9833 8.2 10.95 8.5L13.5 11.05C13.5833 11.0167 13.6627 11 13.738 11H14.262C14.3373 11 14.4167 11.0167 14.5 11.05L18.05 7.5C18.0167 7.41667 18 7.33733 18 7.262V7C18 6.45 18.1957 5.979 18.587 5.587C18.979 5.19567 19.45 5 20 5C20.55 5 21.021 5.19567 21.413 5.587C21.8043 5.979 22 6.45 22 7C22 7.55 21.8043 8.02067 21.413 8.412C21.021 8.804 20.55 9 20 9H19.738C19.6627 9 19.5833 8.98333 19.5 8.95L15.95 12.5C15.9833 12.5833 16 12.6627 16 12.738V13C16 13.55 15.8043 14.021 15.413 14.413C15.021 14.8043 14.55 15 14 15C13.45 15 12.9793 14.8043 12.588 14.413C12.196 14.021 12 13.55 12 13V12.738C12 12.6627 12.0167 12.5833 12.05 12.5L9.5 9.95C9.41667 9.98333 9.33733 10 9.262 10H9C8.96667 10 8.8 9.98333 8.5 9.95L3.95 14.5C3.98333 14.5833 4 14.6627 4 14.738V15C4 15.55 3.804 16.021 3.412 16.413C3.02067 16.8043 2.55 17 2 17ZM3 6.975L2.375 5.625L1.025 5L2.375 4.375L3 3.025L3.625 4.375L4.975 5L3.625 5.625L3 6.975ZM14 6L13.05 3.95L11 3L13.05 2.05L14 0L14.95 2.05L17 3L14.95 3.95L14 6Z"/>
</svg>
