<svg id="Layer_1" data-name="Layer 1" xmlns="http://www.w3.org/2000/svg" xmlns:xlink="http://www.w3.org/1999/xlink" viewBox="0 0 1500 1000"><defs><style>.cls-1{fill:none;}.cls-2{clip-path:url(#clip-path);}.cls-3{fill:#71afde;}.cls-4{fill:#fff;}.cls-5{fill:#f5b31a;}.cls-6{fill:#84361c;}.cls-7{fill:#83371b;}</style><clipPath id="clip-path"><circle class="cls-1" cx="750" cy="500" r="331"/></clipPath></defs><title>flag-of-Argentina</title><g class="cls-2"><rect class="cls-3" x="142.73" y="143.38" width="1214.54" height="237.75"/><rect class="cls-3" x="142.73" y="618.87" width="1214.54" height="237.75"/><rect class="cls-4" x="142.73" y="381.13" width="1214.54" height="237.75"/><path class="cls-5" d="M745.39,501.91l41.53,90.5s.72,1.73,1.87,1.25.44-2.2.44-2.2l-34.62-93.37m-1,35.21c-.51,13.77,8,21.33,6.85,33.63s5.65,19.24,7.21,24-1.69,7.64-.29,8.31,4.49-3.09,3.48-9.89-6.16-8.81-5-23.82-6.14-18.51-4.34-32.2"/><path class="cls-6" d="M767.74,599.85a1.25,1.25,0,0,1-.57-.13c-1-.47-.64-1.5-.27-2.58a8.74,8.74,0,0,0,.3-6,27.76,27.76,0,0,0-2.1-4.31c-2.52-4.55-6-10.79-5.14-19.92.55-6-1.27-10.91-3.18-16.07s-3.93-10.56-3.67-17.52l1,0c-.25,6.77,1.71,12,3.61,17.14,2,5.26,3.81,10.24,3.24,16.51-.79,8.82,2.56,14.9,5,19.33a27.84,27.84,0,0,1,2.18,4.49,9.78,9.78,0,0,1-.3,6.68c-.26.75-.42,1.25-.26,1.33s.42,0,.7-.21c1.24-.91,2.8-4.1,2.05-9.14a20.31,20.31,0,0,0-2-5.82c-1.76-3.78-3.76-8.07-3-18.12.59-7.36-.9-11.91-2.34-16.31-1.24-3.79-2.43-7.41-2.28-12.51l-15.86-34.56.93-.43,15.07,32.83c0-.4.08-.82.14-1.25l1,.14c-.14,1.08-.22,2.1-.26,3.07l25.57,55.7s.56,1.27,1.21,1a.46.46,0,0,0,.27-.26,2,2,0,0,0-.12-1.28l-34.62-93.38,1-.35,34.62,93.36a3,3,0,0,1,.11,2,1.52,1.52,0,0,1-.83.82c-1.29.52-2.22-.77-2.54-1.54L761.84,539a36.8,36.8,0,0,0,2.2,9.89c1.48,4.5,3,9.15,2.39,16.71-.79,9.79,1.15,13.94,2.86,17.61a21,21,0,0,1,2.09,6.1c.76,5.14-.74,8.85-2.46,10.11A2,2,0,0,1,767.74,599.85Z"/><path class="cls-5" d="M745,500l3.74,99.5s0,1.88,1.25,1.88,1.25-1.87,1.25-1.87L755,500M740.6,532.15c-5.73,12.53-.81,22.76-6.54,33.69s-2.15,19.93-2.53,24.94-4.48,6.41-3.45,7.58,5.33-1.14,7-7.8-2.32-10.5,4.55-23.91,1.41-19.44,8.3-31.41"/><path class="cls-6" d="M750,601.89c-1.39,0-1.76-1.56-1.76-2.39l-2.22-59a36.62,36.62,0,0,0-1.75,10c-.36,4.72-.73,9.6-4.19,16.35-4.47,8.74-4.27,13.32-4.1,17.37a21,21,0,0,1-.4,6.44c-1.27,5-4.08,7.89-6.15,8.4a1.67,1.67,0,0,1-1.73-.39c-.73-.82,0-1.64.74-2.5a8.75,8.75,0,0,0,2.58-5.45,27.68,27.68,0,0,0-.29-4.79c-.58-5.16-1.37-12.23,2.88-20.36,2.82-5.37,3-10.57,3.21-16.06s.41-11.26,3.31-17.6l.94.43c-2.82,6.15-3,11.77-3.23,17.2-.2,5.62-.4,10.93-3.32,16.51-4.11,7.85-3.34,14.74-2.78,19.77a28.6,28.6,0,0,1,.3,5,9.82,9.82,0,0,1-2.83,6.06c-.54.62-.87,1-.74,1.14s.38.15.72.07c1.48-.36,4.15-2.7,5.39-7.65a20.21,20.21,0,0,0,.38-6.15c-.18-4.17-.38-8.9,4.21-17.87,3.37-6.57,3.73-11.35,4.08-16,.3-4,.59-7.77,2.68-12.43l-1.44-38,1,0,1.36,36.09c.19-.36.39-.73.6-1.09l.89.51q-.81,1.41-1.41,2.73l2.31,61.25s0,1.39.73,1.39.73-1.35.73-1.36L754.47,500l1,0-3.74,99.51C751.76,600.33,751.39,601.89,750,601.89Z"/><path class="cls-5" d="M745.38,498.09l-34.61,93.36s-.72,1.74.44,2.21,1.86-1.25,1.86-1.25l41.54-90.5M729,526.11c-10.09,9.37-9.45,20.71-18.93,28.62s-9.61,17.59-11.88,22.08-6.61,4.21-6.09,5.68,5.36,1,9.45-4.54,1.87-10.58,13.35-20.34,8.74-17.43,19.69-25.84"/><path class="cls-6" d="M711.61,594.25a1.61,1.61,0,0,1-.6-.12,1.46,1.46,0,0,1-.83-.82,3,3,0,0,1,.12-2.06L730.8,536a36.54,36.54,0,0,0-5.43,8.54c-2.14,4.23-4.35,8.59-10.13,13.51-7.48,6.36-9,10.67-10.43,14.47a21.09,21.09,0,0,1-2.83,5.79c-3.11,4.18-6.79,5.73-8.89,5.41a1.66,1.66,0,0,1-1.46-1c-.37-1,.6-1.51,1.63-2a8.76,8.76,0,0,0,4.48-4.06,27.54,27.54,0,0,0,1.56-4.52c1.44-5,3.41-11.83,10.46-17.72,4.65-3.88,6.82-8.61,9.11-13.61s4.69-10.25,9.79-15l.7.75c-5,4.61-7.3,9.72-9.56,14.66-2.34,5.12-4.55,9.94-9.39,14-6.8,5.68-8.72,12.35-10.12,17.21a29.3,29.3,0,0,1-1.63,4.71,9.78,9.78,0,0,1-4.95,4.51c-.71.35-1.18.59-1.12.76s.3.3.65.35c1.51.22,4.87-.91,7.91-5a19.93,19.93,0,0,0,2.7-5.53c1.43-3.92,3-8.37,10.73-14.9,5.62-4.78,7.79-9.06,9.88-13.19,1.8-3.56,3.51-6.95,7.22-10.45l13.22-35.67,1,.36L733.3,532.15c.32-.26.65-.53,1-.79l.62.81c-.87.67-1.65,1.34-2.36,2l-21.3,57.47a2.13,2.13,0,0,0-.13,1.29.45.45,0,0,0,.28.26c.65.28,1.19-.95,1.19-1l41.55-90.53.93.43-41.54,90.5a3,3,0,0,1-1.35,1.52A1.44,1.44,0,0,1,711.61,594.25Z"/><path class="cls-5" d="M746.47,496.47l-67.71,73s-1.33,1.32-.45,2.2,2.21-.43,2.21-.43l73-67.72m-32.91,12.56c-12.91,4.79-16.67,15.51-28.45,19.2s-15.61,12.57-19.42,15.85-7.71,1.36-7.8,2.92,4.57,3,10.47-.57,5.79-9.07,20.12-13.7,14.74-12.75,28.08-16.33"/><path class="cls-6" d="M679,572.5A1.54,1.54,0,0,1,677.5,571a3,3,0,0,1,.9-1.85l40.12-43.26a36.1,36.1,0,0,0-8.3,5.82c-3.6,3.09-7.31,6.27-14.52,8.6-9.34,3-12.44,6.4-15.18,9.38a21,21,0,0,1-4.84,4.27c-4.47,2.67-8.46,2.7-10.29,1.59a1.65,1.65,0,0,1-.95-1.49c.06-1.11,1.14-1.18,2.29-1.25a8.72,8.72,0,0,0,5.68-2,27.58,27.58,0,0,0,3.17-3.59c3.24-4.06,7.68-9.63,16.44-12.37,5.79-1.81,9.6-5.35,13.63-9.09s8.25-7.67,14.79-10.1l.36,1c-6.35,2.35-10.47,6.18-14.45,9.89s-8,7.44-14,9.32c-8.47,2.64-12.79,8.07-16,12a28,28,0,0,1-3.3,3.72,9.77,9.77,0,0,1-6.28,2.28c-.8.05-1.33.09-1.34.28s.16.37.46.56c1.32.79,4.85,1,9.24-1.6a20.51,20.51,0,0,0,4.61-4.08c2.82-3.08,6-6.56,15.61-9.66,7-2.27,10.65-5.39,14.17-8.41,3-2.6,5.91-5.08,10.69-6.89l25.85-27.88.76.69-24.57,26.49,1.2-.35.27,1c-1,.28-2,.6-2.93.93l-41.69,45s-1,1-.46,1.49,1.48-.43,1.49-.44l73-67.72.7.75-73,67.71A2.92,2.92,0,0,1,679,572.5Z"/><path class="cls-6" d="M756.29,535.63c.66,13.22,8.16,19.07,6.69,31.12,3.23-9.52-4.56-16.91-4.12-31m-11.17-34.68,28.45,62.16-23.83-64.07"/><path class="cls-6" d="M742.18,535.33c-4.45,12.46.24,20.74-5.74,31.31,6.64-7.57,2.26-17.37,8-30.2m3-36.32L750,568.43l2.5-68.31"/><path class="cls-6" d="M729.25,529.65c-8.88,9.81-7.72,19.25-17.27,26.73,9-4.46,8.72-15.18,19-24.82m16.63-32.42L723.77,563.2l28.44-62.15"/><path class="cls-6" d="M719.49,519.45c-12,5.67-14.5,14.83-26.19,18.09,10-.67,13.88-10.7,27-15.66m27.77-23.6-46.54,50.07,50.07-46.54"/><path class="cls-5" d="M748.09,495.38l-90.5,41.54s-1.72.72-1.25,1.87,2.21.44,2.21.44l93.36-34.62m-35.21-1c-13.76-.51-21.33,8-33.62,6.85s-19.24,5.65-24,7.22-7.64-1.7-8.32-.3,3.09,4.49,9.89,3.48,8.81-6.16,23.83-5,18.5-6.14,32.2-4.34"/><path class="cls-6" d="M657.46,540a1.88,1.88,0,0,1-.77-.14,1.46,1.46,0,0,1-.82-.83c-.53-1.28.76-2.22,1.52-2.54L711,511.85a36.28,36.28,0,0,0-9.87,2.19c-4.5,1.48-9.16,3-16.72,2.39-9.79-.78-13.94,1.15-17.61,2.86a21,21,0,0,1-6.09,2.09c-5.16.77-8.86-.74-10.12-2.46a1.68,1.68,0,0,1-.31-1.75c.48-1,1.5-.64,2.59-.27a8.73,8.73,0,0,0,6,.3,28.2,28.2,0,0,0,4.31-2.1c4.54-2.52,10.77-6,19.91-5.14,6,.55,10.92-1.26,16.07-3.18s10.56-3.93,17.53-3.67l0,1c-6.76-.25-12,1.71-17.13,3.61-5.27,2-10.25,3.81-16.52,3.24-8.82-.79-14.9,2.56-19.33,5a28.2,28.2,0,0,1-4.48,2.18,9.77,9.77,0,0,1-6.68-.3c-.76-.26-1.26-.42-1.34-.25s0,.41.21.69c.91,1.24,4.09,2.81,9.15,2.06a20.16,20.16,0,0,0,5.81-2c3.78-1.76,8.07-3.76,18.13-3,7.35.59,11.9-.9,16.31-2.34,3.78-1.24,7.4-2.43,12.49-2.28l34.58-15.87.42.93-32.84,15.08c.41,0,.83.08,1.26.14l-.13,1c-1.09-.15-2.12-.23-3.09-.27l-55.7,25.57s-1.25.56-1,1.21a.5.5,0,0,0,.27.28,2.13,2.13,0,0,0,1.27-.12l93.38-34.63.36,1-93.36,34.62A3.69,3.69,0,0,1,657.46,540Z"/><path class="cls-5" d="M750,495l-99.5,3.74s-1.87,0-1.88,1.25,1.88,1.25,1.88,1.25L750,505M717.85,490.6c-12.52-5.73-22.76-.81-33.69-6.53s-19.93-2.16-24.94-2.54-6.41-4.48-7.58-3.45,1.14,5.33,7.81,7,10.49-2.31,23.9,4.55,19.45,1.41,31.42,8.3"/><path class="cls-6" d="M750,505.5l-99.5-3.74h0c-.81,0-2.37-.37-2.37-1.76s1.57-1.76,2.39-1.76l59-2.22a36.62,36.62,0,0,0-10-1.75c-4.72-.36-9.61-.72-16.36-4.18-8.74-4.48-13.32-4.28-17.36-4.1a21.31,21.31,0,0,1-6.44-.41c-5.05-1.27-7.9-4.08-8.41-6.15a1.67,1.67,0,0,1,.39-1.73c.82-.73,1.64,0,2.5.74a8.75,8.75,0,0,0,5.45,2.58,27.68,27.68,0,0,0,4.79-.29c5.16-.58,12.23-1.37,20.36,2.88,5.37,2.82,10.57,3,16.07,3.21s11.25.41,17.59,3.31l-.43.94c-6.15-2.82-11.77-3-17.2-3.23-5.62-.2-10.93-.4-16.51-3.32-7.85-4.11-14.74-3.34-19.77-2.78a27.6,27.6,0,0,1-5,.3,9.81,9.81,0,0,1-6-2.83c-.62-.54-1-.87-1.15-.74s-.15.38-.07.72c.36,1.48,2.7,4.15,7.66,5.39a20.16,20.16,0,0,0,6.14.38c4.17-.18,8.89-.38,17.87,4.21,6.58,3.37,11.36,3.73,16,4.08,4,.3,7.77.59,12.43,2.68l38-1.44,0,1-36.08,1.36,1.09.6-.51.89q-1.41-.81-2.73-1.41l-61.26,2.31s-1.38,0-1.39.74,1.36.73,1.37.73L750,504.47Z"/><path class="cls-5" d="M751.91,495.38l-93.36-34.61s-1.73-.72-2.21.44,1.26,1.86,1.26,1.86l90.49,41.54M723.89,479c-9.37-10.09-20.71-9.45-28.62-18.93s-17.59-9.61-22.08-11.88-4.2-6.61-5.68-6.09-1,5.36,4.54,9.45,10.58,1.87,20.34,13.35,17.43,8.74,25.85,19.69"/><path class="cls-6" d="M747.88,505.07l-90.5-41.54a3,3,0,0,1-1.52-1.36,1.46,1.46,0,0,1,0-1.16,1.52,1.52,0,0,1,.83-.84,3,3,0,0,1,2,.13l55.31,20.5a36.39,36.39,0,0,0-8.55-5.43c-4.22-2.14-8.59-4.35-13.51-10.13-6.36-7.48-10.67-9-14.47-10.43a21.09,21.09,0,0,1-5.79-2.83c-4.18-3.11-5.73-6.79-5.41-8.89a1.66,1.66,0,0,1,1-1.46c1-.37,1.52.6,2,1.64a8.68,8.68,0,0,0,4,4.47A27.54,27.54,0,0,0,678,449.3c5,1.44,11.83,3.41,17.72,10.46,3.88,4.65,8.61,6.82,13.61,9.11s10.25,4.69,15,9.79l-.75.7c-4.61-5-9.72-7.3-14.66-9.56-5.12-2.34-9.94-4.55-14-9.39-5.68-6.8-12.35-8.72-17.21-10.12a29.3,29.3,0,0,1-4.71-1.63,9.78,9.78,0,0,1-4.5-4.94c-.37-.74-.6-1.18-.78-1.13s-.29.3-.34.65c-.23,1.51.91,4.87,5,7.91a20.21,20.21,0,0,0,5.53,2.7c3.92,1.43,8.36,3,14.9,10.73,4.79,5.62,9.06,7.79,13.2,9.88,3.55,1.8,6.95,3.51,10.45,7.22l35.66,13.22-.36,1-33.86-12.55c.26.31.52.64.78,1l-.81.62c-.67-.86-1.33-1.64-2-2.35l-57.48-21.31s-1.28-.5-1.55.15a.46.46,0,0,0,0,.38,2,2,0,0,0,1,.81l90.52,41.55Z"/><path class="cls-5" d="M753.54,496.47l-73-67.71s-1.33-1.33-2.21-.45.44,2.21.44,2.21l67.72,73m-12.57-32.91c-4.79-12.91-15.51-16.67-19.19-28.45s-12.58-15.61-15.85-19.42-1.37-7.71-2.93-7.8-3,4.57.57,10.47,9.07,5.79,13.7,20.12,12.75,14.74,16.33,28.08"/><path class="cls-6" d="M746.1,503.88l-67.71-73a3.63,3.63,0,0,1-.64-.89,1.64,1.64,0,0,1,.21-2c1-1,2.34-.14,2.93.44l43.25,40.11a36.27,36.27,0,0,0-5.82-8.28c-3.08-3.6-6.27-7.31-8.6-14.52-3-9.34-6.4-12.44-9.38-15.18a21,21,0,0,1-4.27-4.84c-2.67-4.47-2.7-8.46-1.59-10.29a1.67,1.67,0,0,1,1.49-.95c1.11.06,1.18,1.14,1.25,2.29a8.79,8.79,0,0,0,2,5.68,27.58,27.58,0,0,0,3.59,3.17c4.06,3.24,9.63,7.68,12.37,16.44,1.81,5.79,5.35,9.6,9.09,13.63s7.67,8.25,10.09,14.79l-1,.35c-2.35-6.34-6.18-10.46-9.88-14.44s-7.44-8-9.32-14c-2.65-8.46-8.07-12.79-12-15.95a28,28,0,0,1-3.72-3.3,9.76,9.76,0,0,1-2.28-6.28c-.05-.83-.1-1.33-.28-1.34s-.38.16-.57.46c-.79,1.31-1,4.85,1.6,9.24a20.51,20.51,0,0,0,4.08,4.61c3.08,2.82,6.56,6,9.66,15.61,2.27,7,5.39,10.65,8.41,14.17,2.6,3,5.07,5.91,6.89,10.67l27.89,25.87-.69.76-26.5-24.58c.12.39.24.8.35,1.21l-1,.27c-.29-1.06-.6-2-.94-2.94l-44.93-41.68s-1-1-1.5-.46c-.09.09-.29.29,0,.85a3,3,0,0,0,.46.64l67.72,73Z"/><path class="cls-6" d="M714.37,506.29c-13.22.66-19.07,8.16-31.12,6.69,9.53,3.23,16.91-4.56,31-4.12m34.68-11.17-62.15,28.45,64.06-23.83"/><path class="cls-6" d="M714.67,492.18c-12.46-4.45-20.74.24-31.3-5.74,7.56,6.64,17.36,2.26,30.19,8.05m36.32,3L681.57,500l68.31,2.5"/><path class="cls-6" d="M720.35,479.25c-9.81-8.88-19.24-7.72-26.72-17.27,4.45,9,15.18,8.72,24.81,19m32.42,16.63L686.8,473.77,749,502.21"/><path class="cls-6" d="M730.55,469.49c-5.67-12-14.83-14.5-18.08-26.19.66,10,10.69,13.88,15.66,27m23.59,27.77-50.07-46.54,46.54,50.07"/><path class="cls-5" d="M754.61,498.09l-41.54-90.5s-.71-1.72-1.86-1.25-.44,2.21-.44,2.21l34.62,93.36m1-35.21c.5-13.76-8-21.33-6.86-33.62s-5.64-19.24-7.21-24,1.69-7.64.29-8.32-4.48,3.09-3.48,9.89,6.16,8.81,5,23.83,6.14,18.5,4.35,32.2"/><path class="cls-6" d="M744.91,502.09l-34.62-93.36a3,3,0,0,1-.11-2,1.47,1.47,0,0,1,.84-.82c1.28-.53,2.21.76,2.53,1.52L738.16,461a36.57,36.57,0,0,0-2.2-9.87c-1.48-4.51-3-9.16-2.39-16.73.79-9.78-1.15-13.93-2.86-17.6a21,21,0,0,1-2.09-6.1c-.76-5.16.74-8.86,2.46-10.12a1.7,1.7,0,0,1,1.76-.31c1,.48.64,1.5.27,2.59a8.73,8.73,0,0,0-.3,6,27.29,27.29,0,0,0,2.1,4.31c2.51,4.54,6,10.77,5.13,19.91-.54,6.05,1.27,10.92,3.19,16.07s3.92,10.56,3.67,17.53l-1,0c.25-6.76-1.71-12-3.6-17.13-2-5.27-3.81-10.24-3.25-16.52.79-8.83-2.56-14.9-5-19.33a29.09,29.09,0,0,1-2.18-4.48,9.7,9.7,0,0,1,.31-6.68c.25-.76.41-1.26.25-1.34s-.42,0-.71.22c-1.23.9-2.79,4.08-2,9.14a20.31,20.31,0,0,0,2,5.82c1.76,3.78,3.76,8.06,3,18.12-.6,7.36.9,11.91,2.34,16.32,1.24,3.78,2.43,7.4,2.28,12.49l15.87,34.57-.93.42-15.07-32.83c0,.41-.09.83-.15,1.25l-1-.13c.14-1.09.22-2.11.26-3.07L712.61,407.8s-.56-1.26-1.2-1c-.12.05-.38.16-.34.76a2.64,2.64,0,0,0,.18.78l34.62,93.38Z"/><path class="cls-5" d="M755,500l-3.74-99.5s0-1.88-1.25-1.88-1.24,1.87-1.24,1.87L745,500m14.39-32.15c5.74-12.52.81-22.76,6.54-33.69s2.14-19.93,2.53-24.94,4.48-6.41,3.45-7.58-5.32,1.14-7,7.81,2.32,10.49-4.55,23.9-1.4,19.45-8.3,31.42"/><path class="cls-6" d="M745.52,500l-1,0,3.74-99.51c0-.8.37-2.36,1.76-2.36s1.76,1.56,1.76,2.39l2.22,59a36.68,36.68,0,0,0,1.75-10c.36-4.72.73-9.6,4.19-16.35,4.47-8.74,4.27-13.32,4.1-17.36a21,21,0,0,1,.41-6.44c1.26-5.05,4.07-7.89,6.13-8.4a1.67,1.67,0,0,1,1.74.38c.73.82,0,1.64-.74,2.5a8.75,8.75,0,0,0-2.58,5.45,27.68,27.68,0,0,0,.29,4.79c.58,5.16,1.38,12.23-2.88,20.36-2.81,5.37-3,10.57-3.2,16.07s-.42,11.25-3.32,17.59l-.93-.43c2.82-6.15,3-11.77,3.22-17.2.21-5.62.4-10.93,3.32-16.51,4.11-7.84,3.34-14.73,2.77-19.77a28.49,28.49,0,0,1-.29-5,9.76,9.76,0,0,1,2.83-6.06c.53-.6.87-1,.75-1.14s-.39-.15-.73-.07c-1.49.37-4.15,2.71-5.39,7.66a20.16,20.16,0,0,0-.38,6.14c.18,4.17.39,8.89-4.21,17.87-3.36,6.57-3.73,11.35-4.08,16-.3,4-.59,7.78-2.68,12.43l1.43,38-1,0-1.36-36.08c-.19.36-.39.72-.61,1.09l-.89-.51c.55-.95,1-1.85,1.42-2.73l-2.3-61.26s0-1.39-.74-1.39-.73,1.35-.73,1.36Z"/><path class="cls-5" d="M754.61,501.91l34.62-93.36s.72-1.73-.43-2.21-1.87,1.26-1.87,1.26L745.4,498.09M771,473.89c10.09-9.37,9.46-20.71,18.93-28.62s9.62-17.59,11.89-22.08,6.59-4.2,6.08-5.68-5.35-1-9.45,4.54-1.88,10.58-13.35,20.34-8.75,17.43-19.69,25.85"/><path class="cls-6" d="M755.09,502.09l-1-.36,12.56-33.86c-.31.26-.64.52-1,.78l-.63-.81c.87-.67,1.64-1.33,2.35-2l21.31-57.48s.5-1.28-.15-1.56-1.19,1-1.2,1l-41.54,90.52-.93-.43,41.53-90.5a3.08,3.08,0,0,1,1.37-1.52,1.53,1.53,0,0,1,1.17,0c1.28.54,1,2.11.71,2.88l-20.52,55.31a36.12,36.12,0,0,0,5.44-8.55c2.14-4.22,4.35-8.59,10.12-13.51,7.48-6.36,9-10.67,10.44-14.47a20.71,20.71,0,0,1,2.84-5.79c3.1-4.18,6.78-5.74,8.89-5.41a1.67,1.67,0,0,1,1.46,1c.36,1-.62,1.52-1.65,2a8.75,8.75,0,0,0-4.47,4.06A27.54,27.54,0,0,0,800.7,428c-1.44,5-3.41,11.83-10.45,17.72-4.66,3.88-6.82,8.61-9.11,13.61s-4.69,10.24-9.8,15l-.69-.75c5-4.61,7.29-9.72,9.55-14.66,2.34-5.11,4.55-9.94,9.39-14,6.8-5.68,8.73-12.35,10.13-17.21a28,28,0,0,1,1.63-4.71,9.76,9.76,0,0,1,4.93-4.51c.74-.36,1.19-.59,1.13-.77s-.3-.29-.65-.34c-1.51-.23-4.86.91-7.91,5a20.5,20.5,0,0,0-2.7,5.53c-1.43,3.92-3,8.36-10.73,14.9-5.62,4.79-7.79,9.06-9.88,13.2-1.8,3.56-3.52,6.95-7.23,10.46Z"/><path class="cls-5" d="M753.53,503.54l67.71-73s1.33-1.33.45-2.21-2.21.44-2.21.44l-73,67.72m32.9-12.57c12.91-4.79,16.67-15.51,28.45-19.19s15.61-12.58,19.42-15.86,7.71-1.36,7.8-2.92-4.58-2.95-10.47.57-5.78,9.07-20.12,13.7S789.72,473,776.38,476.54"/><path class="cls-6" d="M753.91,503.88l-.76-.69,24.58-26.5-1.21.35-.27-1c1.06-.29,2-.6,2.94-.94l41.68-44.93s1-1,.46-1.5c-.09-.09-.29-.29-.85,0a3,3,0,0,0-.64.46l-73,67.72-.7-.75,73-67.71a3.63,3.63,0,0,1,.89-.64,1.61,1.61,0,0,1,2.23,2.23,4.21,4.21,0,0,1-.64.91L781.5,474.14a36.27,36.27,0,0,0,8.28-5.82c3.6-3.08,7.31-6.27,14.52-8.6,9.35-3,12.45-6.4,15.18-9.38a21,21,0,0,1,4.84-4.27c4.47-2.67,8.46-2.7,10.29-1.59a1.65,1.65,0,0,1,.95,1.49c-.06,1.11-1.14,1.18-2.29,1.25a8.79,8.79,0,0,0-5.68,2,27.58,27.58,0,0,0-3.17,3.59c-3.24,4.06-7.68,9.63-16.44,12.37-5.79,1.81-9.6,5.34-13.63,9.09s-8.25,7.67-14.79,10.09l-.36-1c6.35-2.35,10.47-6.18,14.45-9.88s8-7.44,14-9.32c8.46-2.65,12.79-8.07,16-12a28,28,0,0,1,3.3-3.72,9.76,9.76,0,0,1,6.28-2.28c.83-.05,1.33-.1,1.34-.28s-.16-.38-.47-.57c-1.3-.79-4.84-1-9.23,1.6a20.24,20.24,0,0,0-4.6,4.08c-2.82,3.08-6,6.56-15.62,9.66-7,2.27-10.65,5.39-14.17,8.41-3,2.6-5.91,5.07-10.67,6.89Z"/><path class="cls-6" d="M743.71,464.37c-.66-13.22-8.16-19.07-6.68-31.12-3.24,9.53,4.56,16.91,4.11,31m11.17,34.68-28.45-62.15,23.83,64.07"/><path class="cls-6" d="M757.83,464.67c4.44-12.46-.24-20.74,5.72-31.3-6.62,7.56-2.25,17.36-8,30.19m-3,36.32-2.49-68.31-2.51,68.31"/><path class="cls-6" d="M770.75,470.36c8.88-9.82,7.72-19.26,17.27-26.74-9,4.46-8.72,15.18-19,24.82M752.4,500.86l23.83-64.06L747.79,499"/><path class="cls-6" d="M780.51,480.55c12-5.67,14.5-14.83,26.19-18.08-10,.66-13.88,10.69-27,15.66m-27.77,23.58,46.54-50.06-50.07,46.54"/><path class="cls-5" d="M751.91,504.61l90.5-41.54s1.73-.71,1.25-1.86-2.2-.43-2.2-.43l-93.37,34.61m35.21,1c13.77.5,21.33-8,33.63-6.86s19.24-5.64,24-7.21,7.64,1.69,8.31.29-3.09-4.48-9.89-3.48-8.81,6.16-23.82,4.95-18.51,6.14-32.2,4.35"/><path class="cls-6" d="M752.13,505.08l-.43-.93,32.83-15.07-1.25-.14.14-1c1.08.14,2.1.22,3.07.26l55.7-25.57s1.27-.55,1-1.2a.47.47,0,0,0-.27-.28,2.07,2.07,0,0,0-1.27.12l-93.38,34.62-.35-1,93.36-34.62a3,3,0,0,1,2-.11,1.5,1.5,0,0,1,.82.84c.52,1.28-.78,2.21-1.54,2.53L789,488.16a36.73,36.73,0,0,0,9.88-2.2c4.5-1.48,9.15-3,16.72-2.39,9.78.79,13.93-1.15,17.6-2.86a21.16,21.16,0,0,1,6.11-2.08c5.14-.77,8.84.73,10.11,2.44a1.73,1.73,0,0,1,.32,1.76c-.48,1-1.51.65-2.59.28a8.74,8.74,0,0,0-6-.3,26.88,26.88,0,0,0-4.31,2.1c-4.55,2.51-10.79,5.95-19.92,5.13-6-.54-10.91,1.27-16.07,3.19s-10.56,3.94-17.52,3.67l0-1c6.77.26,12-1.71,17.13-3.6,5.27-2,10.25-3.81,16.52-3.25,8.82.8,14.9-2.56,19.33-5a28.71,28.71,0,0,1,4.49-2.18,9.71,9.71,0,0,1,6.68.31c.75.26,1.25.41,1.33.25s0-.42-.22-.71c-.9-1.23-4.09-2.79-9.13-2a20.27,20.27,0,0,0-5.83,2c-3.78,1.76-8.06,3.77-18.11,2.95-7.36-.59-11.92.9-16.32,2.34-3.79,1.24-7.4,2.44-12.5,2.28Z"/><path class="cls-5" d="M750,505l99.49-3.74s1.88,0,1.88-1.25-1.87-1.24-1.87-1.24L750,495m32.14,14.39c12.53,5.74,22.76.82,33.69,6.54s19.93,2.14,24.94,2.53,6.41,4.48,7.58,3.45-1.14-5.32-7.8-7-10.5,2.32-23.91-4.54-19.44-1.41-31.41-8.31"/><path class="cls-6" d="M848,522.61a3.19,3.19,0,0,1-1.77-1.05,8.75,8.75,0,0,0-5.45-2.58,27.68,27.68,0,0,0-4.79.29c-5.16.58-12.23,1.38-20.36-2.88-5.37-2.81-10.57-3-16.06-3.2s-11.26-.42-17.6-3.32l.43-.93c6.15,2.82,11.77,3,17.2,3.22,5.62.21,10.93.4,16.51,3.33,7.84,4.1,14.74,3.33,19.77,2.76a28.44,28.44,0,0,1,5-.29,9.76,9.76,0,0,1,6.06,2.83c.6.53,1,.87,1.14.75s.15-.39.07-.73c-.37-1.48-2.71-4.15-7.65-5.39a20.53,20.53,0,0,0-6.15-.38c-4.17.18-8.89.39-17.87-4.21-6.57-3.36-11.35-3.73-16-4.08-4-.3-7.78-.59-12.43-2.68l-38,1.43,0-1,36.09-1.36c-.36-.19-.72-.39-1.09-.61l.51-.88q1.41.81,2.73,1.41l61.25-2.3s1.39,0,1.39-.74-1.35-.73-1.36-.73L750,495.52l0-1,99.51,3.75h0c.8,0,2.36.36,2.36,1.75s-1.56,1.76-2.39,1.76l-59,2.22a36.3,36.3,0,0,0,10,1.75c4.72.36,9.6.73,16.35,4.19,8.74,4.47,13.32,4.27,17.37,4.1a21,21,0,0,1,6.44.41c5,1.27,7.89,4.07,8.39,6.13a1.67,1.67,0,0,1-.38,1.74A1,1,0,0,1,848,522.61Z"/><path class="cls-5" d="M748.09,504.61l93.36,34.62s1.74.72,2.21-.43-1.25-1.87-1.25-1.87l-90.5-41.54m24.2,25.6c9.37,10.09,20.71,9.46,28.62,18.93s17.6,9.62,22.08,11.89,4.2,6.59,5.68,6.08,1-5.35-4.54-9.45-10.58-1.88-20.34-13.35-17.43-8.75-25.84-19.69"/><path class="cls-6" d="M832.23,558.45c-.76,0-1.17-.84-1.6-1.72a8.72,8.72,0,0,0-4-4.47,27.36,27.36,0,0,0-4.53-1.56c-5-1.44-11.83-3.41-17.72-10.45-3.88-4.66-8.61-6.82-13.61-9.11s-10.24-4.69-15-9.8l.75-.7c4.61,5,9.72,7.3,14.66,9.56,5.12,2.34,9.94,4.56,14,9.39,5.68,6.8,12.35,8.72,17.22,10.13a28.68,28.68,0,0,1,4.71,1.63,9.73,9.73,0,0,1,4.5,4.93c.36.74.58,1.19.77,1.13s.29-.3.34-.65c.23-1.51-.91-4.86-5-7.91a20.5,20.5,0,0,0-5.53-2.7c-3.92-1.43-8.36-3-14.9-10.73-4.78-5.62-9.06-7.79-13.19-9.88-3.56-1.8-7-3.52-10.46-7.22l-35.66-13.23.36-1,33.87,12.56c-.26-.31-.52-.64-.78-1l.81-.63c.67.87,1.33,1.65,2,2.35l57.47,21.31s1.29.5,1.55-.15-.95-1.19-1-1.2l-90.52-41.54.43-.94,90.51,41.54a3.07,3.07,0,0,1,1.51,1.37,1.49,1.49,0,0,1,0,1.17,1.64,1.64,0,0,1-1.79,1,3.76,3.76,0,0,1-1.08-.25L785.94,519.2a36.8,36.8,0,0,0,8.55,5.43c4.23,2.14,8.59,4.35,13.51,10.12,6.36,7.48,10.67,9,14.47,10.44a20.71,20.71,0,0,1,5.79,2.84c4.18,3.1,5.73,6.78,5.41,8.89a1.67,1.67,0,0,1-1,1.46A1.32,1.32,0,0,1,832.23,558.45Z"/><path class="cls-5" d="M746.47,503.53l73,67.71s1.32,1.33,2.2.45-.43-2.21-.43-2.21l-67.72-73m12.56,32.91c4.79,12.91,15.51,16.67,19.2,28.45s12.57,15.61,15.85,19.42,1.36,7.71,2.92,7.8,3-4.57-.57-10.47-9.07-5.79-13.7-20.12S777,539.72,773.46,526.38"/><path class="cls-6" d="M804.1,585.56H804c-1.11-.06-1.18-1.14-1.25-2.29a8.77,8.77,0,0,0-2-5.68,27.58,27.58,0,0,0-3.59-3.17c-4.06-3.24-9.63-7.67-12.37-16.44-1.81-5.79-5.35-9.6-9.09-13.63s-7.67-8.25-10.1-14.79l1-.36c2.35,6.35,6.18,10.47,9.89,14.45s7.44,8,9.32,14c2.64,8.47,8.07,12.8,12,16a28,28,0,0,1,3.72,3.3,9.76,9.76,0,0,1,2.27,6.29c.05.79.1,1.32.28,1.33s.38-.16.57-.46c.79-1.31,1-4.85-1.6-9.24a20.51,20.51,0,0,0-4.08-4.61c-3.08-2.82-6.56-6-9.66-15.61-2.27-7-5.39-10.65-8.41-14.17-2.6-3-5.08-5.91-6.89-10.69l-27.88-25.85.69-.76,26.49,24.57c-.12-.39-.24-.79-.35-1.2l1-.27c.28,1,.6,2,.93,2.93l45,41.69s1,1,1.49.46-.43-1.48-.44-1.49l-67.72-73,.75-.7,67.71,73c.57.57,1.41,1.94.42,2.92a1.45,1.45,0,0,1-1.07.45h0a3,3,0,0,1-1.85-.9l-43.26-40.12a36.1,36.1,0,0,0,5.82,8.3c3.08,3.6,6.27,7.31,8.6,14.52,3,9.34,6.4,12.44,9.38,15.18a21,21,0,0,1,4.27,4.84c2.67,4.47,2.7,8.46,1.59,10.29A1.7,1.7,0,0,1,804.1,585.56Z"/><path class="cls-6" d="M785.63,493.71c13.22-.66,19.07-8.16,31.12-6.68-9.52-3.24-16.91,4.56-31,4.11m-34.68,11.17,62.16-28.45-64.07,23.83"/><path class="cls-6" d="M785.33,507.82c12.47,4.45,20.74-.23,31.31,5.73-7.57-6.62-17.37-2.25-30.2-8m-36.32-3,68.31-2.49-68.31-2.5"/><path class="cls-6" d="M779.65,520.75c9.81,8.88,19.25,7.72,26.73,17.27-4.46-9-15.18-8.72-24.82-19M749.14,502.4l64.06,23.83-62.15-28.44"/><path class="cls-6" d="M769.45,530.51c5.67,12,14.83,14.5,18.09,26.19-.67-10-10.7-13.88-15.66-27m-23.59-27.77,50.06,46.54-46.54-50.07"/><path class="cls-5" d="M750,459.45A40.55,40.55,0,1,1,709.45,500,40.55,40.55,0,0,1,750,459.45"/><path class="cls-6" d="M750,541.24A41.24,41.24,0,1,1,791.24,500,41.29,41.29,0,0,1,750,541.24Zm0-81.1A39.86,39.86,0,1,0,789.86,500,39.9,39.9,0,0,0,750,460.14Z"/><path class="cls-7" d="M763.83,491.33a8,8,0,0,0-7,3.69c3.11,2.82,10,3.12,14.69-.31a10.7,10.7,0,0,0-7.71-3.38m-.05.64c2.69-.05,5.21,1.18,5.57,2.41a8.22,8.22,0,0,1-11.23.64,6.59,6.59,0,0,1,5.66-3"/><path class="cls-6" d="M764.35,489.4c-4.06,0-5,.94-6.86,2.5s-2.81,1.24-3.12,1.56,0,1.25.62.93a17.55,17.55,0,0,0,3.74-2.49c1.88-1.57,3.74-1.56,5.62-1.56,5.61,0,8.73,4.67,9.36,4.36S770.58,489.4,764.35,489.4Z"/><path class="cls-6" d="M775.57,491.27c-7.17-6.24-16.22-7.17-21.2-2.49A12.18,12.18,0,0,0,752,494c-.63,3.55.49,7.39,3.26,11.32a2.35,2.35,0,0,0-1.24.62,22.13,22.13,0,0,1-2.55-14.22,19.38,19.38,0,0,1,1-3.56C759.35,482.54,768.71,481.92,775.57,491.27Z"/><path class="cls-6" d="M763.73,491.57a2.81,2.81,0,1,1-2.81,2.81,2.81,2.81,0,0,1,2.81-2.81"/><path class="cls-6" d="M771.84,496.26c-5.3,4.06-10.6,3.74-13.73,1.87s-3.11-2.49-2.49-2.49,1.25.62,3.74,1.87S765.6,498.76,771.84,496.26Z"/><path class="cls-6" d="M743.8,505.61a2.8,2.8,0,0,0,.55,5.56,2.74,2.74,0,0,0,2.27-1.18,5.91,5.91,0,0,0,3.38.9h.37a5.84,5.84,0,0,0,3.37-.9,2.77,2.77,0,0,0,2.28,1.18,2.8,2.8,0,0,0,.55-5.56,1.88,1.88,0,0,1-.64,3.65,1.9,1.9,0,0,1-1.87-1.78,4.25,4.25,0,0,1-7.75,0,1.9,1.9,0,0,1-1.87,1.78,1.88,1.88,0,0,1-.64-3.65"/><path class="cls-6" d="M746.85,513.91c-3.13,0-4.36,2.82-7.16,4.7,1.56-.62,2.78-1.85,5-3.1s4,.27,5.29.27h0c1.24,0,3.1-1.52,5.29-.27s3.45,2.48,5,3.1c-2.82-1.88-4.09-4.7-7.21-4.7a8.47,8.47,0,0,0-3.1,1h0a8.58,8.58,0,0,0-3.1-1"/><path class="cls-6" d="M745.79,517.61a21.41,21.41,0,0,0-5.2,1c5.62-1.24,6.86.64,9.35.64H750c2.49,0,3.73-1.88,9.34-.64-6.24-1.87-7.47-.64-9.34-.64h-.06a33.69,33.69,0,0,0-4.15-.36"/><path class="cls-6" d="M740.88,518.57a10,10,0,0,0-1.19,0c6.56.62,3.4,4.38,10.27,4.38h0c6.86,0,3.76-3.76,10.31-4.38C753.45,518,755.62,522,750,522h0c-5.27,0-3.65-3.54-9.08-3.47"/><path class="cls-6" d="M755.62,528.7a5.62,5.62,0,1,0-11.23,0,5.77,5.77,0,0,1,11.23,0"/><path class="cls-6" d="M724.79,491.27C732,485,741,484.1,746,488.78a12.28,12.28,0,0,1,2.32,5.21c.62,3.55-.48,7.39-3.27,11.32a2.31,2.31,0,0,1,1.25.62,22.18,22.18,0,0,0,2.54-14.22,19.38,19.38,0,0,0-1-3.56C741,482.54,731.65,481.92,724.79,491.27Z"/><path class="cls-6" d="M736,489.4c4.05,0,5,.94,6.86,2.5s2.81,1.24,3.12,1.56,0,1.25-.63.93a17.58,17.58,0,0,1-3.73-2.49c-1.88-1.57-3.75-1.56-5.62-1.56-5.62,0-8.74,4.67-9.36,4.36s3.12-5.3,9.36-5.3"/><path class="cls-7" d="M735.82,491.33a8,8,0,0,0-7,3.69c3.12,2.82,10,3.12,14.69-.31a10.67,10.67,0,0,0-7.71-3.38m0,.64c2.7-.05,5.22,1.18,5.56,2.41a8.2,8.2,0,0,1-11.21.64,6.57,6.57,0,0,1,5.65-3"/><path class="cls-6" d="M736.19,491.57a2.81,2.81,0,1,1-2.8,2.81,2.81,2.81,0,0,1,2.8-2.81"/><path class="cls-6" d="M728.53,496.26c5.3,4.06,10.6,3.74,13.73,1.87s3.11-2.49,2.49-2.49-1.25.62-3.74,1.87S734.77,498.76,728.53,496.26Z"/></g></svg>