<svg width="12" height="12" viewBox="0 0 12 12" fill="none"
    xmlns="http://www.w3.org/2000/svg">
    <path d="M0.666626 7.33334C0.666626 6.07778 1.03885 4.87223 1.78329 3.71667C2.52774 2.56111 3.54996 1.55 4.84996 0.683337C5.0944 0.51667 5.34718 0.508337 5.60829 0.658337C5.8694 0.808337 5.99996 1.03334 5.99996 1.33334V2.2C5.99996 2.57778 6.13052 2.89445 6.39163 3.15C6.65274 3.40556 6.97218 3.53334 7.34996 3.53334C7.53885 3.53334 7.7194 3.49167 7.89163 3.40834C8.06385 3.325 8.21663 3.20556 8.34996 3.05C8.43885 2.93889 8.55274 2.86945 8.69163 2.84167C8.83051 2.81389 8.96107 2.84445 9.08329 2.93334C9.78329 3.43334 10.3333 4.07223 10.7333 4.85C11.1333 5.62778 11.3333 6.45556 11.3333 7.33334C11.3333 8.31112 11.0944 9.20278 10.6166 10.0083C10.1388 10.8139 9.51107 11.45 8.73329 11.9167C8.92218 11.65 9.0694 11.3583 9.17496 11.0417C9.28051 10.725 9.33329 10.3889 9.33329 10.0333C9.33329 9.58889 9.24996 9.16945 9.08329 8.775C8.91663 8.38056 8.67774 8.02778 8.36663 7.71667L5.99996 5.4L3.64996 7.71667C3.32774 8.03889 3.08329 8.39445 2.91663 8.78334C2.74996 9.17223 2.66663 9.58889 2.66663 10.0333C2.66663 10.3889 2.7194 10.725 2.82496 11.0417C2.93051 11.3583 3.07774 11.65 3.26663 11.9167C2.48885 11.45 1.86107 10.8139 1.38329 10.0083C0.905515 9.20278 0.666626 8.31112 0.666626 7.33334ZM5.99996 7.26667L7.41663 8.65C7.60551 8.83889 7.74996 9.05 7.84996 9.28334C7.94996 9.51667 7.99996 9.76667 7.99996 10.0333C7.99996 10.5778 7.80551 11.0417 7.41663 11.425C7.02774 11.8083 6.55551 12 5.99996 12C5.4444 12 4.97218 11.8083 4.58329 11.425C4.1944 11.0417 3.99996 10.5778 3.99996 10.0333C3.99996 9.77778 4.04996 9.53056 4.14996 9.29167C4.24996 9.05278 4.3944 8.83889 4.58329 8.65L5.99996 7.26667Z" fill="content"/>
</svg>
