<svg width="12" height="12" viewBox="0 0 12 12" fill="content"
    xmlns="http://www.w3.org/2000/svg">
    <path d="M6.66667 3.33333V0.666667C6.66667 0.477778 6.73067 0.319333 6.85867 0.191333C6.98622 0.0637777 7.14444 0 7.33333 0H11.3333C11.5222 0 11.6804 0.0637777 11.808 0.191333C11.936 0.319333 12 0.477778 12 0.666667V3.33333C12 3.52222 11.936 3.68044 11.808 3.808C11.6804 3.936 11.5222 4 11.3333 4H7.33333C7.14444 4 6.98622 3.936 6.85867 3.808C6.73067 3.68044 6.66667 3.52222 6.66667 3.33333ZM0 6V0.666667C0 0.477778 0.0640001 0.319333 0.192 0.191333C0.319556 0.0637777 0.477778 0 0.666667 0H4.66667C4.85556 0 5.014 0.0637777 5.142 0.191333C5.26956 0.319333 5.33333 0.477778 5.33333 0.666667V6C5.33333 6.18889 5.26956 6.34711 5.142 6.47467C5.014 6.60267 4.85556 6.66667 4.66667 6.66667H0.666667C0.477778 6.66667 0.319556 6.60267 0.192 6.47467C0.0640001 6.34711 0 6.18889 0 6ZM6.66667 11.3333V6C6.66667 5.81111 6.73067 5.65267 6.85867 5.52467C6.98622 5.39711 7.14444 5.33333 7.33333 5.33333H11.3333C11.5222 5.33333 11.6804 5.39711 11.808 5.52467C11.936 5.65267 12 5.81111 12 6V11.3333C12 11.5222 11.936 11.6804 11.808 11.808C11.6804 11.936 11.5222 12 11.3333 12H7.33333C7.14444 12 6.98622 11.936 6.85867 11.808C6.73067 11.6804 6.66667 11.5222 6.66667 11.3333ZM0 11.3333V8.66667C0 8.47778 0.0640001 8.31933 0.192 8.19133C0.319556 8.06378 0.477778 8 0.666667 8H4.66667C4.85556 8 5.014 8.06378 5.142 8.19133C5.26956 8.31933 5.33333 8.47778 5.33333 8.66667V11.3333C5.33333 11.5222 5.26956 11.6804 5.142 11.808C5.014 11.936 4.85556 12 4.66667 12H0.666667C0.477778 12 0.319556 11.936 0.192 11.808C0.0640001 11.6804 0 11.5222 0 11.3333Z" fill="content"/>
</svg>
