<?xml version="1.0" encoding="UTF-8"?>
<svg width="50px" height="50px" viewBox="0 0 50 50" version="1.1" xmlns="http://www.w3.org/2000/svg" xmlns:xlink="http://www.w3.org/1999/xlink">
    <title>EUROC_Logo_FC_OnDark</title>
    <defs>
        <linearGradient x1="111.671569%" y1="111.671569%" x2="40.9614846%" y2="40.9614846%" id="linearGradient-1">
            <stop stop-color="#8656EF" offset="0%"></stop>
            <stop stop-color="#1AA3FF" offset="97%"></stop>
        </linearGradient>
    </defs>
    <g id="EURC" stroke="none" stroke-width="1" fill="none" fill-rule="evenodd">
        <g id="EUROC" transform="translate(-164.000000, -260.000000)">
            <g id="Group-12" transform="translate(160.000000, 260.000000)">
                <g id="EUROC_Logo_FC_OnDark" transform="translate(4.000000, 0.000000)">
                    <g id="Group" transform="translate(0.000000, 0.000000)">
                        <path d="M-1.71042763e-15,25 C-1.71042763e-15,11.1929272 11.1929272,1.86592105e-15 25,1.86592105e-15 C38.8070728,1.86592105e-15 50,11.1929272 50,25 C50,38.8070728 38.8070728,50 25,50 C11.1929272,50 -1.71042763e-15,38.8070728 -1.71042763e-15,25 Z" id="Logo" fill="url(#linearGradient-1)"></path>
                        <g transform="translate(5.340689, 5.340336)" fill="#FFFFFF" fill-rule="nonzero" id="Path">
                            <path d="M10.7874621,20.8060225 L9.88164978,22.0287116 C9.66736406,22.4527312 9.97583745,22.9541318 10.4509775,22.9541318 L13.4152632,22.9541318 C14.3525882,26.8291318 17.0518178,29.4716388 20.6684145,29.4170169 C23.2359915,29.4170169 25.1715657,28.1404063 26.4639327,25.5983895 C26.6284985,25.2748601 26.4842408,24.8778013 26.1526582,24.729692 L24.7387926,24.0980393 C24.4275181,23.9590337 24.0605713,24.0892858 23.909661,24.3949581 C23.242294,25.7492999 22.1334005,26.6123951 20.6684145,26.6123951 C19.3420839,26.6123951 18.2780083,25.9628853 17.4628823,24.6505604 C17.1442548,24.1425071 16.8907534,23.5756304 16.6978262,22.9544819 L20.4943949,22.9544819 C20.7349411,22.9544819 20.9551792,22.8189777 21.0637226,22.6043419 L21.9695349,21.3816528 C22.1838206,20.957283 21.8753473,20.4562326 21.4002072,20.4562326 L16.2706554,20.4562326 C16.2559495,20.1932774 16.2468459,19.9250702 16.2468459,19.6484595 C16.2440447,19.3742999 16.2517478,19.1060926 16.2661036,18.8417368 L20.4943949,18.8417368 C20.7349411,18.8417368 20.9551792,18.7062326 21.0637226,18.4915968 L21.9695349,17.2689077 C22.1838206,16.8448881 21.8753473,16.3434875 21.4002072,16.3434875 L16.6932744,16.3434875 C17.3816498,14.0987396 18.8189747,12.6281514 20.6684145,12.657213 C22.0773781,12.657213 23.1715657,13.4285716 23.8732464,14.692227 C24.0304593,14.9754903 24.3844509,15.0840337 24.6806694,14.9530814 L26.1018879,14.3256304 C26.4418739,14.1754203 26.5864817,13.7643559 26.4065097,13.4390758 C25.0948851,11.0700281 23.1820699,9.87990209 20.6684145,9.87990209 C18.374647,9.87990209 16.537112,10.7916668 15.1418038,12.6018909 C14.3263276,13.6680674 13.7584005,14.9187676 13.4215657,16.3434875 L11.35714,16.3434875 C11.1165938,16.3434875 10.8963557,16.4789917 10.7878122,16.6936276 L9.88199992,17.9163167 C9.6677142,18.3406864 9.97618759,18.8417368 10.4513276,18.8417368 L13.0805293,18.8417368 C13.0679243,19.107143 13.0556694,19.3732494 13.0556694,19.6484595 C13.052168,19.9212186 13.0588206,20.1901262 13.0703753,20.4562326 L11.3574901,20.4562326 C11.1169439,20.4562326 10.8967058,20.5917368 10.7881624,20.8063727 L10.7874621,20.8060225 Z"></path>
                            <path d="M3.20868059,18.6064427 C3.72338647,10.3879553 10.339633,3.75105055 18.5563697,3.21218501 C22.8756974,2.9289217 26.8693949,4.32422982 29.95728,6.80357156 C30.2569999,7.04411778 30.6862716,7.03326344 30.9730363,6.77731106 L32.1841708,5.69677884 C32.5434145,5.37640069 32.5360615,4.80847352 32.1649131,4.50175083 C28.5630223,1.52486008 23.8865517,-0.1960783 18.8130223,0.0178572744 C8.7506974,0.442227022 0.562672185,8.53606456 0.0283584597,18.5934875 C-0.202733977,22.9436276 0.990193194,27.0098041 3.18101952,30.3690478 C3.44327443,30.7713587 4.00524922,30.8410365 4.36379263,30.5213587 L5.57352653,29.4418769 C5.85959095,29.1866248 5.9212156,28.762255 5.71638367,28.4383755 C3.93487106,25.619748 2.98213997,22.2282914 3.20903073,18.6064427 L3.20868059,18.6064427 Z"></path>
                            <path d="M36.1376022,8.9499301 C35.8753473,8.54796932 35.3133725,8.47794131 34.954829,8.79761918 L33.7450952,9.87710097 C33.4590307,10.1323531 33.3974061,10.5567228 33.602238,10.8806024 C35.3837506,13.6992298 36.3368318,17.0910365 36.109591,20.7128853 C35.5945349,28.9310225 28.9782884,35.5675772 20.7615517,36.1064427 C16.442224,36.389706 12.4488767,34.9943979 9.36064137,32.5150562 C9.06092148,32.2745099 8.63164978,32.2853643 8.34488507,32.5413167 L7.13410076,33.6218489 C6.77485706,33.942227 6.78221,34.5101542 7.15335846,34.8168769 C10.7555994,37.7941178 15.4320699,39.514706 20.5059495,39.3007704 C30.5682744,38.8760506 38.7562996,30.7818629 39.2899131,20.7244399 C39.5206554,16.37465 38.3277282,12.3084735 36.137252,8.9499301 L36.1376022,8.9499301 Z"></path>
                        </g>
                    </g>
                    <g id="Group" transform="translate(60.634104, 10.146359)" fill="#FFFFFF" fill-rule="nonzero">
                        <polygon id="Path" points="9.95157893e-15 28.7478992 9.95157893e-15 0.978991597 17.155112 0.978991597 17.155112 5.36554622 4.69992997 5.36554622 4.69992997 12.7289916 15.980042 12.7289916 15.980042 16.9982493 4.69992997 16.9982493 4.69992997 24.3613445 17.155112 24.3613445 17.155112 28.7478992"></polygon>
                        <path d="M27.495098,29.2965686 C22.9516807,29.2965686 20.2885154,25.9282213 20.2885154,21.6981793 L20.2885154,9.67401961 L24.8319328,9.67401961 L24.8319328,20.8757003 C24.8319328,23.2254902 25.9285714,25.2233894 28.6701681,25.2233894 C31.2944678,25.2233894 32.6652661,23.4607843 32.6652661,20.9541317 L32.6652661,9.67401961 L37.2086835,9.67401961 L37.2086835,25.2622549 C37.2086835,26.8287815 37.3263305,28.0430672 37.4044118,28.7478992 L33.0567227,28.7478992 C32.9782913,28.3172269 32.9002101,27.4163165 32.9002101,26.6330532 C31.960084,28.3564426 29.727591,29.2965686 27.495098,29.2965686 L27.495098,29.2965686 Z" id="Path"></path>
                        <path d="M52.8357843,14.1782213 C52.3266807,14.0997899 51.817577,14.0605742 51.3473389,14.0605742 C47.822479,14.0605742 46.2163866,16.0973389 46.2163866,19.6614146 L46.2163866,28.7478992 L41.6729692,28.7478992 L41.6729692,9.67401961 L46.0987395,9.67401961 L46.0987395,12.7289916 C46.9996499,10.6530112 49.1144958,9.43907563 51.6211485,9.43907563 C52.1694678,9.43907563 52.6393557,9.517507 52.8354342,9.55672269 L52.8354342,14.1782213 L52.8357843,14.1782213 Z" id="Path"></path>
                        <path d="M73.5553221,19.1915266 C73.5553221,25.0665266 69.3644958,29.3357843 63.6463585,29.3357843 C57.9670868,29.3357843 53.7762605,25.0665266 53.7762605,19.1915266 C53.7762605,13.3557423 57.9670868,9.08648459 63.6463585,9.08648459 C69.3648459,9.08648459 73.5553221,13.3557423 73.5553221,19.1915266 L73.5553221,19.1915266 Z M68.9726891,19.1915266 C68.9726891,15.2356443 66.4660364,13.1988796 63.6460084,13.1988796 C60.8651961,13.1988796 58.3193277,15.2356443 58.3193277,19.1915266 C58.3193277,23.147409 60.8651961,25.2622549 63.6460084,25.2622549 C66.4660364,25.2622549 68.9726891,23.1866246 68.9726891,19.1915266 L68.9726891,19.1915266 Z" id="Shape"></path>
                        <path d="M84.0122549,14.8830532 C84.0122549,5.83578431 90.7881653,0.391456583 97.9947479,0.391456583 C105.044818,0.391456583 109.235644,4.54306723 110.488796,9.39985994 L106.063025,10.8879552 C105.240546,7.51960784 102.655462,4.81722689 97.9947479,4.81722689 C93.4121148,4.81722689 88.8298319,8.14635854 88.8298319,14.8830532 C88.8298319,21.3848039 93.2948179,24.8315826 98.0339636,24.8315826 C102.694678,24.8315826 105.358193,21.855042 106.298319,18.7216387 L110.606793,20.1316527 C109.353291,24.8315826 105.123249,29.3357843 98.0343137,29.3357843 C90.5535714,29.3357843 84.012605,23.9306723 84.012605,14.8830532 L84.0122549,14.8830532 Z" id="Path"></path>
                        <path d="M131.912815,19.1915266 C131.912815,25.0665266 127.721989,29.3357843 122.003852,29.3357843 C116.32458,29.3357843 112.133754,25.0665266 112.133754,19.1915266 C112.133754,13.3557423 116.32458,9.08648459 122.003852,9.08648459 C127.722339,9.08648459 131.912815,13.3557423 131.912815,19.1915266 L131.912815,19.1915266 Z M127.330182,19.1915266 C127.330182,15.2356443 124.823529,13.1988796 122.003501,13.1988796 C119.222689,13.1988796 116.676821,15.2356443 116.676821,19.1915266 C116.676821,23.147409 119.222689,25.2622549 122.003501,25.2622549 C124.823529,25.2622549 127.330182,23.1866246 127.330182,19.1915266 L127.330182,19.1915266 Z" id="Shape"></path>
                        <path d="M137.396008,-4.97578947e-15 C139.040966,-4.97578947e-15 140.372549,1.33158263 140.372549,2.97654062 C140.372549,4.6214986 139.040966,5.91421569 137.396008,5.91421569 C135.790266,5.91421569 134.458333,4.62184874 134.458333,2.97654062 C134.458333,1.33123249 135.789916,-4.97578947e-15 137.396008,-4.97578947e-15 Z M135.163515,28.7482493 L135.163515,9.67401961 L139.667717,9.67401961 L139.667717,28.7482493 L135.163515,28.7482493 L135.163515,28.7482493 Z" id="Shape"></path>
                        <path d="M148.67542,28.7478992 L144.132003,28.7478992 L144.132003,9.67401961 L148.557773,9.67401961 L148.557773,12.219888 C149.810924,10.0266106 152.082633,9.12570028 154.197829,9.12570028 C158.858543,9.12570028 161.091387,12.4940476 161.091387,16.6845238 L161.091387,28.7478992 L156.547969,28.7478992 L156.547969,17.4677871 C156.547969,15.1179972 155.490546,13.2380952 152.631303,13.2380952 C150.046218,13.2380952 148.67542,15.2356443 148.67542,17.7422969 L148.67542,28.7478992 L148.67542,28.7478992 Z" id="Path"></path>
                    </g>
                </g>
            </g>
        </g>
    </g>
</svg>