<svg width="14" height="14" viewBox="0 0 14 14" fill="content"
    xmlns="http://www.w3.org/2000/svg">
    <path d="M6.99992 13.6667C6.0777 13.6667 5.21103 13.4917 4.39992 13.1417C3.58881 12.7917 2.88325 12.3167 2.28325 11.7167C1.68325 11.1167 1.20825 10.4112 0.858252 9.60004C0.508252 8.78893 0.333252 7.92226 0.333252 7.00004C0.333252 6.07782 0.508252 5.21115 0.858252 4.40004C1.20825 3.58893 1.68325 2.88337 2.28325 2.28337C2.88325 1.68337 3.58881 1.20837 4.39992 0.858374C5.21103 0.508374 6.0777 0.333374 6.99992 0.333374C8.62214 0.333374 10.0416 0.841707 11.2583 1.85837C12.4749 2.87504 13.2333 4.15004 13.5333 5.68337H12.1666C11.9555 4.87226 11.5749 4.14726 11.0249 3.50837C10.4749 2.86949 9.79992 2.38893 8.99992 2.06671V2.33337C8.99992 2.70004 8.86936 3.01393 8.60825 3.27504C8.34714 3.53615 8.03325 3.66671 7.66659 3.66671H6.33325V5.00004C6.33325 5.18893 6.26936 5.34726 6.14159 5.47504C6.01381 5.60282 5.85547 5.66671 5.66659 5.66671H4.33325V7.00004H5.66659V9.00004H4.99992L1.79992 5.80004C1.76659 6.00004 1.73603 6.20004 1.70825 6.40004C1.68047 6.60004 1.66659 6.80004 1.66659 7.00004C1.66659 8.4556 2.1777 9.7056 3.19992 10.75C4.22214 11.7945 5.48881 12.3223 6.99992 12.3334V13.6667ZM12.5999 12.8667L10.9333 11.2C10.6999 11.3334 10.4499 11.4445 10.1833 11.5334C9.91659 11.6223 9.63325 11.6667 9.33325 11.6667C8.49992 11.6667 7.79159 11.375 7.20825 10.7917C6.62492 10.2084 6.33325 9.50004 6.33325 8.66671C6.33325 7.83337 6.62492 7.12504 7.20825 6.54171C7.79159 5.95837 8.49992 5.66671 9.33325 5.66671C10.1666 5.66671 10.8749 5.95837 11.4583 6.54171C12.0416 7.12504 12.3333 7.83337 12.3333 8.66671C12.3333 8.96671 12.2888 9.25004 12.1999 9.51671C12.111 9.78337 11.9999 10.0334 11.8666 10.2667L13.5333 11.9334C13.6555 12.0556 13.7166 12.2112 13.7166 12.4C13.7166 12.5889 13.6555 12.7445 13.5333 12.8667C13.411 12.9889 13.2555 13.05 13.0666 13.05C12.8777 13.05 12.7221 12.9889 12.5999 12.8667ZM9.33325 10.3334C9.79992 10.3334 10.1944 10.1723 10.5166 9.85004C10.8388 9.52782 10.9999 9.13337 10.9999 8.66671C10.9999 8.20004 10.8388 7.8056 10.5166 7.48337C10.1944 7.16115 9.79992 7.00004 9.33325 7.00004C8.86659 7.00004 8.47214 7.16115 8.14992 7.48337C7.8277 7.8056 7.66659 8.20004 7.66659 8.66671C7.66659 9.13337 7.8277 9.52782 8.14992 9.85004C8.47214 10.1723 8.86659 10.3334 9.33325 10.3334Z" fill="content"/>
</svg>
