<svg width="13" height="14" viewBox="0 0 13 14" fill="none"
    xmlns="http://www.w3.org/2000/svg">
    <path d="M7.25 10.25C7.25 10.3983 7.20602 10.5433 7.1236 10.6667C7.04119 10.79 6.92406 10.8861 6.78701 10.9429C6.64997 10.9997 6.49917 11.0145 6.35368 10.9856C6.2082 10.9566 6.07456 10.8852 5.96967 10.7803C5.86478 10.6754 5.79335 10.5418 5.76441 10.3963C5.73548 10.2508 5.75033 10.1 5.80709 9.96299C5.86386 9.82594 5.95999 9.70881 6.08333 9.6264C6.20666 9.54399 6.35167 9.5 6.5 9.5C6.69892 9.5 6.88968 9.57902 7.03033 9.71967C7.17098 9.86032 7.25 10.0511 7.25 10.25ZM6.5 3.5C5.12125 3.5 4 4.50938 4 5.75V6C4 6.13261 4.05268 6.25979 4.14645 6.35355C4.24022 6.44732 4.36739 6.5 4.5 6.5C4.63261 6.5 4.75979 6.44732 4.85356 6.35355C4.94732 6.25979 5 6.13261 5 6V5.75C5 5.0625 5.67313 4.5 6.5 4.5C7.32688 4.5 8 5.0625 8 5.75C8 6.4375 7.32688 7 6.5 7C6.36739 7 6.24022 7.05268 6.14645 7.14645C6.05268 7.24021 6 7.36739 6 7.5V8C6 8.13261 6.05268 8.25979 6.14645 8.35355C6.24022 8.44732 6.36739 8.5 6.5 8.5C6.63261 8.5 6.75979 8.44732 6.85356 8.35355C6.94732 8.25979 7 8.13261 7 8V7.955C8.14 7.74563 9 6.83625 9 5.75C9 4.50938 7.87875 3.5 6.5 3.5ZM13 7C13 8.28558 12.6188 9.54229 11.9046 10.6112C11.1903 11.6801 10.1752 12.5132 8.98744 13.0052C7.79973 13.4972 6.49279 13.6259 5.23192 13.3751C3.97104 13.1243 2.81285 12.5052 1.90381 11.5962C0.994767 10.6872 0.375703 9.52896 0.124899 8.26809C-0.125905 7.00721 0.00281635 5.70028 0.494786 4.51256C0.986756 3.32484 1.81988 2.30968 2.8888 1.59545C3.95772 0.881218 5.21442 0.5 6.5 0.5C8.22335 0.50182 9.8756 1.18722 11.0942 2.40582C12.3128 3.62441 12.9982 5.27665 13 7ZM12 7C12 5.9122 11.6774 4.84883 11.0731 3.94436C10.4687 3.03989 9.60976 2.33494 8.60476 1.91866C7.59977 1.50238 6.4939 1.39346 5.42701 1.60568C4.36011 1.8179 3.3801 2.34172 2.61092 3.11091C1.84173 3.8801 1.3179 4.86011 1.10568 5.927C0.893465 6.9939 1.00238 8.09977 1.41867 9.10476C1.83495 10.1098 2.5399 10.9687 3.44437 11.5731C4.34884 12.1774 5.41221 12.5 6.5 12.5C7.95819 12.4983 9.35617 11.9184 10.3873 10.8873C11.4184 9.85617 11.9983 8.45818 12 7Z" fill="#908E96"/>
</svg>
