<svg width="12" height="12" viewBox="0 0 12 12" fill="content"
    xmlns="http://www.w3.org/2000/svg">
    <path d="M2.00008 12C1.63341 12 1.31964 11.8696 1.05875 11.6087C0.797415 11.3474 0.666748 11.0334 0.666748 10.6667V4.66671C0.666748 4.4556 0.714081 4.2556 0.808748 4.06671C0.90297 3.87782 1.03341 3.72226 1.20008 3.60004L5.20008 0.600041C5.3223 0.511152 5.45008 0.444485 5.58341 0.400041C5.71675 0.355596 5.85564 0.333374 6.00008 0.333374C6.14453 0.333374 6.28341 0.355596 6.41675 0.400041C6.55008 0.444485 6.67786 0.511152 6.80008 0.600041L10.8001 3.60004C10.9667 3.72226 11.0974 3.87782 11.1921 4.06671C11.2863 4.2556 11.3334 4.4556 11.3334 4.66671V10.6667C11.3334 11.0334 11.203 11.3474 10.9421 11.6087C10.6807 11.8696 10.3667 12 10.0001 12H7.33341V7.33337H4.66675V12H2.00008Z" fill="content"/>
</svg>
