<svg width="10" height="10" viewBox="0 0 10 10" fill="none"
    xmlns="http://www.w3.org/2000/svg">
    <path d="M5.00004 7.08325C5.1181 7.08325 5.21712 7.04325 5.29712 6.96325C5.37685 6.88353 5.41671 6.78464 5.41671 6.66659V4.9895C5.41671 4.87145 5.37685 4.77422 5.29712 4.69784C5.21712 4.62145 5.1181 4.58325 5.00004 4.58325C4.88199 4.58325 4.7831 4.62311 4.70337 4.70284C4.62337 4.78284 4.58337 4.88186 4.58337 4.99992V6.677C4.58337 6.79506 4.62337 6.89228 4.70337 6.96867C4.7831 7.04506 4.88199 7.08325 5.00004 7.08325ZM5.00004 3.74992C5.1181 3.74992 5.21712 3.70992 5.29712 3.62992C5.37685 3.5502 5.41671 3.45131 5.41671 3.33325C5.41671 3.2152 5.37685 3.11617 5.29712 3.03617C5.21712 2.95645 5.1181 2.91659 5.00004 2.91659C4.88199 2.91659 4.7831 2.95645 4.70337 3.03617C4.62337 3.11617 4.58337 3.2152 4.58337 3.33325C4.58337 3.45131 4.62337 3.5502 4.70337 3.62992C4.7831 3.70992 4.88199 3.74992 5.00004 3.74992ZM5.00004 9.16659C4.42365 9.16659 3.88199 9.05714 3.37504 8.83825C2.8681 8.61964 2.42712 8.32284 2.05212 7.94784C1.67712 7.57284 1.38032 7.13186 1.16171 6.62492C0.942819 6.11797 0.833374 5.57631 0.833374 4.99992C0.833374 4.42353 0.942819 3.88186 1.16171 3.37492C1.38032 2.86797 1.67712 2.427 2.05212 2.052C2.42712 1.677 2.8681 1.38006 3.37504 1.16117C3.88199 0.942557 4.42365 0.833252 5.00004 0.833252C5.57643 0.833252 6.1181 0.942557 6.62504 1.16117C7.13199 1.38006 7.57296 1.677 7.94796 2.052C8.32296 2.427 8.61976 2.86797 8.83837 3.37492C9.05726 3.88186 9.16671 4.42353 9.16671 4.99992C9.16671 5.57631 9.05726 6.11797 8.83837 6.62492C8.61976 7.13186 8.32296 7.57284 7.94796 7.94784C7.57296 8.32284 7.13199 8.61964 6.62504 8.83825C6.1181 9.05714 5.57643 9.16659 5.00004 9.16659Z" fill="content"/>
</svg>
