<svg width="16" height="10" viewBox="0 0 16 10" fill="content"
    xmlns="http://www.w3.org/2000/svg">
    <path d="M10.6666 9.66659C10.3555 9.66659 10.0527 9.63603 9.75829 9.57492C9.46385 9.51381 9.17774 9.4277 8.89996 9.31659C9.55551 8.71659 10.0694 8.04714 10.4416 7.30825C10.8138 6.56936 11 5.79992 11 4.99992C11 4.19992 10.8138 3.43047 10.4416 2.69159C10.0694 1.9527 9.55551 1.28325 8.89996 0.683252C9.17774 0.572141 9.46385 0.48603 9.75829 0.424919C10.0527 0.363808 10.3555 0.333252 10.6666 0.333252C11.9666 0.333252 13.0694 0.78603 13.975 1.69159C14.8805 2.59714 15.3333 3.69992 15.3333 4.99992C15.3333 6.29992 14.8805 7.4027 13.975 8.30825C13.0694 9.21381 11.9666 9.66659 10.6666 9.66659ZM7.99996 8.83325C7.38885 8.41103 6.90274 7.86659 6.54163 7.19992C6.18051 6.53325 5.99996 5.79992 5.99996 4.99992C5.99996 4.19992 6.18051 3.46659 6.54163 2.79992C6.90274 2.13325 7.38885 1.58881 7.99996 1.16659C8.61107 1.58881 9.09718 2.13325 9.45829 2.79992C9.8194 3.46659 9.99996 4.19992 9.99996 4.99992C9.99996 5.79992 9.8194 6.53325 9.45829 7.19992C9.09718 7.86659 8.61107 8.41103 7.99996 8.83325ZM5.33329 9.66659C4.03329 9.66659 2.93051 9.21381 2.02496 8.30825C1.1194 7.4027 0.666626 6.29992 0.666626 4.99992C0.666626 3.69992 1.1194 2.59714 2.02496 1.69159C2.93051 0.78603 4.03329 0.333252 5.33329 0.333252C5.6444 0.333252 5.94718 0.363808 6.24163 0.424919C6.53607 0.48603 6.82218 0.572141 7.09996 0.683252C6.4444 1.28325 5.93051 1.9527 5.55829 2.69159C5.18607 3.43047 4.99996 4.19992 4.99996 4.99992C4.99996 5.8777 5.18051 6.69159 5.54163 7.44159C5.90274 8.19159 6.39996 8.8277 7.03329 9.34992C6.76663 9.44992 6.49163 9.5277 6.20829 9.58325C5.92496 9.63881 5.63329 9.66659 5.33329 9.66659Z" fill="content"/>
</svg>
