<svg width="4" height="12" viewBox="0 0 4 12" fill="content"
    xmlns="http://www.w3.org/2000/svg">
    <path d="M1.99996 11.3334C1.63329 11.3334 1.31952 11.203 1.05863 10.9421C0.797293 10.6807 0.666626 10.3667 0.666626 10.0001C0.666626 9.63341 0.797293 9.31941 1.05863 9.05808C1.31952 8.79719 1.63329 8.66675 1.99996 8.66675C2.36663 8.66675 2.68063 8.79719 2.94196 9.05808C3.20285 9.31941 3.33329 9.63341 3.33329 10.0001C3.33329 10.3667 3.20285 10.6807 2.94196 10.9421C2.68063 11.203 2.36663 11.3334 1.99996 11.3334ZM1.99996 7.33341C1.63329 7.33341 1.31952 7.20275 1.05863 6.94141C0.797293 6.68053 0.666626 6.36675 0.666626 6.00008C0.666626 5.63341 0.797293 5.31941 1.05863 5.05808C1.31952 4.79719 1.63329 4.66675 1.99996 4.66675C2.36663 4.66675 2.68063 4.79719 2.94196 5.05808C3.20285 5.31941 3.33329 5.63341 3.33329 6.00008C3.33329 6.36675 3.20285 6.68053 2.94196 6.94141C2.68063 7.20275 2.36663 7.33341 1.99996 7.33341ZM1.99996 3.33341C1.63329 3.33341 1.31952 3.20275 1.05863 2.94141C0.797293 2.68053 0.666626 2.36675 0.666626 2.00008C0.666626 1.63341 0.797293 1.31964 1.05863 1.05875C1.31952 0.797415 1.63329 0.666748 1.99996 0.666748C2.36663 0.666748 2.68063 0.797415 2.94196 1.05875C3.20285 1.31964 3.33329 1.63341 3.33329 2.00008C3.33329 2.36675 3.20285 2.68053 2.94196 2.94141C2.68063 3.20275 2.36663 3.33341 1.99996 3.33341Z" fill="content"/>
</svg>
