<svg width="12" height="12" viewBox="0 0 12 12" fill="none"
    xmlns="http://www.w3.org/2000/svg">
    <path d="M6.00008 8.91666C6.16536 8.91666 6.304 8.86066 6.416 8.74866C6.52761 8.63704 6.58341 8.4986 6.58341 8.33332V6.58332H8.348C8.51328 6.58332 8.64939 6.52732 8.75633 6.41532C8.86328 6.30371 8.91675 6.16527 8.91675 5.99999C8.91675 5.83471 8.86075 5.69607 8.74875 5.58407C8.63714 5.47246 8.49869 5.41666 8.33341 5.41666H6.58341V3.65207C6.58341 3.4868 6.52761 3.35068 6.416 3.24374C6.304 3.1368 6.16536 3.08332 6.00008 3.08332C5.8348 3.08332 5.69636 3.13913 5.58475 3.25074C5.47275 3.36274 5.41675 3.50138 5.41675 3.66666V5.41666H3.65216C3.48689 5.41666 3.35078 5.47246 3.24383 5.58407C3.13689 5.69607 3.08341 5.83471 3.08341 5.99999C3.08341 6.16527 3.13922 6.30371 3.25083 6.41532C3.36283 6.52732 3.50147 6.58332 3.66675 6.58332H5.41675V8.34791C5.41675 8.51318 5.47275 8.64929 5.58475 8.75624C5.69636 8.86318 5.8348 8.91666 6.00008 8.91666ZM6.00008 11.8333C5.19314 11.8333 4.4348 11.6801 3.72508 11.3737C3.01536 11.0676 2.398 10.6521 1.873 10.1271C1.348 9.60207 0.93247 8.98471 0.626415 8.27499C0.31997 7.56527 0.166748 6.80693 0.166748 5.99999C0.166748 5.19305 0.31997 4.43471 0.626415 3.72499C0.93247 3.01527 1.348 2.39791 1.873 1.87291C2.398 1.34791 3.01536 0.932184 3.72508 0.62574C4.4348 0.319684 5.19314 0.166656 6.00008 0.166656C6.80703 0.166656 7.56536 0.319684 8.27508 0.62574C8.9848 0.932184 9.60217 1.34791 10.1272 1.87291C10.6522 2.39791 11.0677 3.01527 11.3737 3.72499C11.6802 4.43471 11.8334 5.19305 11.8334 5.99999C11.8334 6.80693 11.6802 7.56527 11.3737 8.27499C11.0677 8.98471 10.6522 9.60207 10.1272 10.1271C9.60217 10.6521 8.9848 11.0676 8.27508 11.3737C7.56536 11.6801 6.80703 11.8333 6.00008 11.8333Z" fill="white"/>
</svg>
