<svg width="14" height="14" viewBox="0 0 14 14" fill="content"
    xmlns="http://www.w3.org/2000/svg">
    <path d="M2.89992 10.3999C3.46659 9.96659 4.09992 9.62481 4.79992 9.37459C5.49992 9.12481 6.23325 8.99992 6.99992 8.99992C7.76659 8.99992 8.49992 9.12481 9.19992 9.37459C9.89992 9.62481 10.5333 9.96659 11.0999 10.3999C11.4888 9.94436 11.7917 9.4277 12.0086 8.84992C12.225 8.27214 12.3333 7.65547 12.3333 6.99992C12.3333 5.52214 11.8139 4.2637 10.7753 3.22459C9.73614 2.18592 8.4777 1.66659 6.99992 1.66659C5.52214 1.66659 4.26392 2.18592 3.22525 3.22459C2.18614 4.2637 1.66659 5.52214 1.66659 6.99992C1.66659 7.65547 1.77503 8.27214 1.99192 8.84992C2.20836 9.4277 2.51103 9.94436 2.89992 10.3999ZM6.99992 7.66659C6.34436 7.66659 5.79147 7.4417 5.34125 6.99192C4.89147 6.5417 4.66659 5.98881 4.66659 5.33325C4.66659 4.6777 4.89147 4.12481 5.34125 3.67459C5.79147 3.22481 6.34436 2.99992 6.99992 2.99992C7.65547 2.99992 8.20836 3.22481 8.65859 3.67459C9.10836 4.12481 9.33325 4.6777 9.33325 5.33325C9.33325 5.98881 9.10836 6.5417 8.65859 6.99192C8.20836 7.4417 7.65547 7.66659 6.99992 7.66659ZM6.99992 13.6666C6.0777 13.6666 5.21103 13.4915 4.39992 13.1413C3.58881 12.7915 2.88325 12.3166 2.28325 11.7166C1.68325 11.1166 1.20836 10.411 0.858585 9.59992C0.508363 8.78881 0.333252 7.92214 0.333252 6.99992C0.333252 6.0777 0.508363 5.21103 0.858585 4.39992C1.20836 3.58881 1.68325 2.88325 2.28325 2.28325C2.88325 1.68325 3.58881 1.20814 4.39992 0.857919C5.21103 0.508141 6.0777 0.333252 6.99992 0.333252C7.92214 0.333252 8.78881 0.508141 9.59992 0.857919C10.411 1.20814 11.1166 1.68325 11.7166 2.28325C12.3166 2.88325 12.7915 3.58881 13.1413 4.39992C13.4915 5.21103 13.6666 6.0777 13.6666 6.99992C13.6666 7.92214 13.4915 8.78881 13.1413 9.59992C12.7915 10.411 12.3166 11.1166 11.7166 11.7166C11.1166 12.3166 10.411 12.7915 9.59992 13.1413C8.78881 13.4915 7.92214 13.6666 6.99992 13.6666Z" fill="content"/>
</svg>
