<svg width="14" height="14" viewBox="0 0 14 14" fill="content"
    xmlns="http://www.w3.org/2000/svg">
    <path d="M8.2499 13.6666H5.7499C5.58323 13.6666 5.43879 13.611 5.31657 13.4999C5.19434 13.3888 5.12212 13.2499 5.0999 13.0833L4.8999 11.5333C4.75546 11.4777 4.61945 11.411 4.4919 11.3333C4.3639 11.2555 4.23879 11.1721 4.11657 11.0833L2.66657 11.6833C2.51101 11.7388 2.35546 11.7444 2.1999 11.6999C2.04434 11.6555 1.92212 11.561 1.83323 11.4166L0.599899 9.26659C0.51101 9.12214 0.483233 8.96659 0.516566 8.79992C0.549899 8.63325 0.633233 8.49992 0.766566 8.39992L2.01657 7.44992C2.00546 7.37214 1.9999 7.29703 1.9999 7.22459V6.77459C1.9999 6.70259 2.00546 6.6277 2.01657 6.54992L0.766566 5.59992C0.633233 5.49992 0.549899 5.36659 0.516566 5.19992C0.483233 5.03325 0.51101 4.8777 0.599899 4.73325L1.83323 2.58325C1.91101 2.4277 2.03034 2.33036 2.19123 2.29125C2.35257 2.25259 2.51101 2.26103 2.66657 2.31659L4.11657 2.91659C4.23879 2.8277 4.36657 2.74436 4.4999 2.66659C4.63323 2.58881 4.76657 2.52214 4.8999 2.46659L5.0999 0.916585C5.12212 0.749919 5.19434 0.61103 5.31657 0.499919C5.43879 0.388808 5.58323 0.333252 5.7499 0.333252H8.2499C8.41657 0.333252 8.56101 0.388808 8.68323 0.499919C8.80546 0.61103 8.87768 0.749919 8.8999 0.916585L9.0999 2.46659C9.24434 2.52214 9.38057 2.58881 9.50857 2.66659C9.63612 2.74436 9.76101 2.8277 9.88323 2.91659L11.3332 2.31659C11.4888 2.26103 11.6443 2.25547 11.7999 2.29992C11.9555 2.34436 12.0777 2.43881 12.1666 2.58325L13.3999 4.73325C13.4888 4.8777 13.5166 5.03325 13.4832 5.19992C13.4499 5.36659 13.3666 5.49992 13.2332 5.59992L11.9832 6.54992C11.9943 6.6277 11.9999 6.70259 11.9999 6.77459V7.22459C11.9999 7.29703 11.9888 7.37214 11.9666 7.44992L13.2166 8.39992C13.3499 8.49992 13.4332 8.63325 13.4666 8.79992C13.4999 8.96659 13.4721 9.12214 13.3832 9.26659L12.1499 11.3999C12.061 11.5444 11.9361 11.6417 11.7752 11.6919C11.6139 11.7417 11.4555 11.7388 11.2999 11.6833L9.88323 11.0833C9.76101 11.1721 9.63323 11.2555 9.4999 11.3333C9.36657 11.411 9.23323 11.4777 9.0999 11.5333L8.8999 13.0833C8.87768 13.2499 8.80546 13.3888 8.68323 13.4999C8.56101 13.611 8.41657 13.6666 8.2499 13.6666ZM7.03323 9.33325C7.67768 9.33325 8.22768 9.10547 8.68323 8.64992C9.13879 8.19436 9.36657 7.64436 9.36657 6.99992C9.36657 6.35547 9.13879 5.80547 8.68323 5.34992C8.22768 4.89436 7.67768 4.66659 7.03323 4.66659C6.37768 4.66659 5.82479 4.89436 5.37457 5.34992C4.92479 5.80547 4.6999 6.35547 4.6999 6.99992C4.6999 7.64436 4.92479 8.19436 5.37457 8.64992C5.82479 9.10547 6.37768 9.33325 7.03323 9.33325Z" fill="content"/>
</svg>
