<svg width="12" height="12" viewBox="0 0 12 12" fill="none"
    xmlns="http://www.w3.org/2000/svg">
    <path d="M6 8.5C5.30833 8.5 4.71883 8.25617 4.2315 7.7685C3.74383 7.28117 3.5 6.69167 3.5 6C3.5 5.30833 3.74383 4.71867 4.2315 4.231C4.71883 3.74367 5.30833 3.5 6 3.5C6.69167 3.5 7.28133 3.74367 7.769 4.231C8.25633 4.71867 8.5 5.30833 8.5 6C8.5 6.69167 8.25633 7.28117 7.769 7.7685C7.28133 8.25617 6.69167 8.5 6 8.5ZM1 6.5C0.858333 6.5 0.739667 6.452 0.644 6.356C0.548 6.26033 0.5 6.14167 0.5 6C0.5 5.85833 0.548 5.7395 0.644 5.6435C0.739667 5.54783 0.858333 5.5 1 5.5H2C2.14167 5.5 2.2605 5.54783 2.3565 5.6435C2.45217 5.7395 2.5 5.85833 2.5 6C2.5 6.14167 2.45217 6.26033 2.3565 6.356C2.2605 6.452 2.14167 6.5 2 6.5H1ZM10 6.5C9.85833 6.5 9.73967 6.452 9.644 6.356C9.548 6.26033 9.5 6.14167 9.5 6C9.5 5.85833 9.548 5.7395 9.644 5.6435C9.73967 5.54783 9.85833 5.5 10 5.5H11C11.1417 5.5 11.2603 5.54783 11.356 5.6435C11.452 5.7395 11.5 5.85833 11.5 6C11.5 6.14167 11.452 6.26033 11.356 6.356C11.2603 6.452 11.1417 6.5 11 6.5H10ZM6 2.5C5.85833 2.5 5.73967 2.452 5.644 2.356C5.548 2.26033 5.5 2.14167 5.5 2V1C5.5 0.858333 5.548 0.7395 5.644 0.6435C5.73967 0.547833 5.85833 0.5 6 0.5C6.14167 0.5 6.2605 0.547833 6.3565 0.6435C6.45217 0.7395 6.5 0.858333 6.5 1V2C6.5 2.14167 6.45217 2.26033 6.3565 2.356C6.2605 2.452 6.14167 2.5 6 2.5ZM6 11.5C5.85833 11.5 5.73967 11.452 5.644 11.356C5.548 11.2603 5.5 11.1417 5.5 11V10C5.5 9.85833 5.548 9.73967 5.644 9.644C5.73967 9.548 5.85833 9.5 6 9.5C6.14167 9.5 6.2605 9.548 6.3565 9.644C6.45217 9.73967 6.5 9.85833 6.5 10V11C6.5 11.1417 6.45217 11.2603 6.3565 11.356C6.2605 11.452 6.14167 11.5 6 11.5ZM2.825 3.525L2.2875 3C2.1875 2.90833 2.1395 2.79167 2.1435 2.65C2.14783 2.50833 2.19583 2.3875 2.2875 2.2875C2.3875 2.1875 2.50833 2.1375 2.65 2.1375C2.79167 2.1375 2.90833 2.1875 3 2.2875L3.525 2.825C3.61667 2.925 3.6625 3.04167 3.6625 3.175C3.6625 3.30833 3.61667 3.425 3.525 3.525C3.43333 3.625 3.31883 3.67283 3.1815 3.6685C3.04383 3.6645 2.925 3.61667 2.825 3.525ZM9 9.7125L8.475 9.175C8.38333 9.075 8.3375 8.95633 8.3375 8.819C8.3375 8.68133 8.38333 8.56667 8.475 8.475C8.56667 8.375 8.68133 8.32717 8.819 8.3315C8.95633 8.3355 9.075 8.38333 9.175 8.475L9.7125 9C9.8125 9.09167 9.8605 9.20833 9.8565 9.35C9.85217 9.49167 9.80417 9.6125 9.7125 9.7125C9.6125 9.8125 9.49167 9.8625 9.35 9.8625C9.20833 9.8625 9.09167 9.8125 9 9.7125ZM8.475 3.525C8.375 3.43333 8.32717 3.31867 8.3315 3.181C8.3355 3.04367 8.38333 2.925 8.475 2.825L9 2.2875C9.09167 2.1875 9.20833 2.1395 9.35 2.1435C9.49167 2.14783 9.6125 2.19583 9.7125 2.2875C9.8125 2.3875 9.8625 2.50833 9.8625 2.65C9.8625 2.79167 9.8125 2.90833 9.7125 3L9.175 3.525C9.075 3.61667 8.95833 3.6625 8.825 3.6625C8.69167 3.6625 8.575 3.61667 8.475 3.525ZM2.2875 9.7125C2.1875 9.6125 2.1375 9.49167 2.1375 9.35C2.1375 9.20833 2.1875 9.09167 2.2875 9L2.825 8.475C2.925 8.38333 3.04383 8.3375 3.1815 8.3375C3.31883 8.3375 3.43333 8.38333 3.525 8.475C3.625 8.56667 3.673 8.68133 3.669 8.819C3.66467 8.95633 3.61667 9.075 3.525 9.175L3 9.7125C2.90833 9.8125 2.79167 9.86033 2.65 9.856C2.50833 9.852 2.3875 9.80417 2.2875 9.7125Z" fill="#6E56CF"/>
</svg>
