<svg width="17" height="20" viewBox="0 0 17 20" fill="none"
    xmlns="http://www.w3.org/2000/svg">
    <path d="M4.5 18H12.5V15C12.5 13.9 12.1083 12.9583 11.325 12.175C10.5417 11.3917 9.6 11 8.5 11C7.4 11 6.45833 11.3917 5.675 12.175C4.89167 12.9583 4.5 13.9 4.5 15V18ZM8.5 9C9.6 9 10.5417 8.60833 11.325 7.825C12.1083 7.04167 12.5 6.1 12.5 5V2H4.5V5C4.5 6.1 4.89167 7.04167 5.675 7.825C6.45833 8.60833 7.4 9 8.5 9ZM15.5 20H1.5C1.21667 20 0.979 19.904 0.787 19.712C0.595667 19.5207 0.5 19.2833 0.5 19C0.5 18.7167 0.595667 18.4793 0.787 18.288C0.979 18.096 1.21667 18 1.5 18H2.5V15C2.5 13.9833 2.73767 13.029 3.213 12.137C3.68767 11.2457 4.35 10.5333 5.2 10C4.35 9.46667 3.68767 8.754 3.213 7.862C2.73767 6.97067 2.5 6.01667 2.5 5V2H1.5C1.21667 2 0.979 1.904 0.787 1.712C0.595667 1.52067 0.5 1.28333 0.5 1C0.5 0.716667 0.595667 0.479 0.787 0.287C0.979 0.0956666 1.21667 0 1.5 0H15.5C15.7833 0 16.0207 0.0956666 16.212 0.287C16.404 0.479 16.5 0.716667 16.5 1C16.5 1.28333 16.404 1.52067 16.212 1.712C16.0207 1.904 15.7833 2 15.5 2H14.5V5C14.5 6.01667 14.2627 6.97067 13.788 7.862C13.3127 8.754 12.65 9.46667 11.8 10C12.65 10.5333 13.3127 11.2457 13.788 12.137C14.2627 13.029 14.5 13.9833 14.5 15V18H15.5C15.7833 18 16.0207 18.096 16.212 18.288C16.404 18.4793 16.5 18.7167 16.5 19C16.5 19.2833 16.404 19.5207 16.212 19.712C16.0207 19.904 15.7833 20 15.5 20Z" fill="#908E96"/>
</svg>
