<svg width="15" height="12" viewBox="0 0 15 12" fill="none"
    xmlns="http://www.w3.org/2000/svg">
    <path d="M4.18329 11.5165C4.06107 11.3943 3.99996 11.2443 3.99996 11.0665C3.99996 10.8887 4.06107 10.7332 4.18329 10.5998L4.78329 9.9665C3.61663 9.83317 2.63885 9.32761 1.84996 8.44984C1.06107 7.57206 0.666626 6.53317 0.666626 5.33317C0.666626 4.03317 1.1194 2.93039 2.02496 2.02484C2.93052 1.11928 4.03329 0.666504 5.33329 0.666504H6.66663C6.85552 0.666504 7.01385 0.730393 7.14163 0.858171C7.2694 0.985948 7.33329 1.14428 7.33329 1.33317C7.33329 1.52206 7.2694 1.68039 7.14163 1.80817C7.01385 1.93595 6.85552 1.99984 6.66663 1.99984H5.33329C4.41107 1.99984 3.62496 2.32484 2.97496 2.97484C2.32496 3.62484 1.99996 4.41095 1.99996 5.33317C1.99996 6.15539 2.25829 6.8665 2.77496 7.4665C3.29163 8.0665 3.93885 8.44428 4.71663 8.59984L4.19996 8.08317C4.07774 7.96095 4.01663 7.80817 4.01663 7.62484C4.01663 7.4415 4.07774 7.28317 4.19996 7.14984C4.33329 7.0165 4.49163 6.94984 4.67496 6.94984C4.85829 6.94984 5.01663 7.0165 5.14996 7.14984L6.86663 8.8665C6.93329 8.93317 6.98052 9.00539 7.00829 9.08317C7.03607 9.16095 7.04996 9.24428 7.04996 9.33317C7.04996 9.42206 7.03607 9.50539 7.00829 9.58317C6.98052 9.66095 6.93329 9.73317 6.86663 9.79984L5.13329 11.5332C5.01107 11.6554 4.85552 11.7165 4.66663 11.7165C4.47774 11.7165 4.31663 11.6498 4.18329 11.5165ZM9.99996 5.33317C9.63329 5.33317 9.3194 5.20261 9.05829 4.9415C8.79718 4.68039 8.66663 4.3665 8.66663 3.99984V1.99984C8.66663 1.63317 8.79718 1.31928 9.05829 1.05817C9.3194 0.797059 9.63329 0.666504 9.99996 0.666504H13.3333C13.7 0.666504 14.0138 0.797059 14.275 1.05817C14.5361 1.31928 14.6666 1.63317 14.6666 1.99984V3.99984C14.6666 4.3665 14.5361 4.68039 14.275 4.9415C14.0138 5.20261 13.7 5.33317 13.3333 5.33317H9.99996ZM9.99996 3.99984H13.3333V1.99984H9.99996V3.99984ZM9.99996 11.3332C9.63329 11.3332 9.3194 11.2026 9.05829 10.9415C8.79718 10.6804 8.66663 10.3665 8.66663 9.99984V7.99984C8.66663 7.63317 8.79718 7.31928 9.05829 7.05817C9.3194 6.79706 9.63329 6.6665 9.99996 6.6665H13.3333C13.7 6.6665 14.0138 6.79706 14.275 7.05817C14.5361 7.31928 14.6666 7.63317 14.6666 7.99984V9.99984C14.6666 10.3665 14.5361 10.6804 14.275 10.9415C14.0138 11.2026 13.7 11.3332 13.3333 11.3332H9.99996Z" fill="content"/>
</svg>
