<svg width="21" height="21" viewBox="0 0 21 21" fill="none" xmlns="http://www.w3.org/2000/svg">
    <path
        d="M20.5303 15.5303C20.8232 15.2374 20.8232 14.7626 20.5303 14.4697L15.7574 9.6967C15.4645 9.40381 14.9896 9.40381 14.6967 9.6967C14.4038 9.98959 14.4038 10.4645 14.6967 10.7574L18.9393 15L14.6967 19.2426C14.4038 19.5355 14.4038 20.0104 14.6967 20.3033C14.9896 20.5962 15.4645 20.5962 15.7574 20.3033L20.5303 15.5303ZM1 15.75L20 15.75V14.25L1 14.25L1 15.75Z"
    />
    <path
        d="M0.46967 5.46967C0.176777 5.76256 0.176777 6.23744 0.46967 6.53033L5.24264 11.3033C5.53553 11.5962 6.01041 11.5962 6.3033 11.3033C6.59619 11.0104 6.59619 10.5355 6.3033 10.2426L2.06066 6L6.3033 1.75736C6.59619 1.46447 6.59619 0.989592 6.3033 0.696699C6.01041 0.403806 5.53553 0.403806 5.24264 0.696699L0.46967 5.46967ZM20 5.25L1 5.25V6.75L20 6.75V5.25Z"
    />
</svg>
    