<svg version="1.1"
    xmlns="http://www.w3.org/2000/svg"
    xmlns:xlink="http://www.w3.org/1999/xlink" width="15" height="15" viewBox="0 0 256 256">
    <g>
        <g>
            <g>
                <path fill="content" d="M30.2,11.1c-3.5,1.2-7.2,4.4-9.1,8l-1.3,2.4l-0.2,95.9c-0.2,106.9-0.5,98.9,4,104c1.4,1.5,3.5,3.1,5.4,4c2.8,1.2,4.1,1.3,13.3,1.4h10.2v6.7c0,8.1,0.8,10.4,3.8,11.7c1.7,0.7,5.4,0.9,18.3,0.9c21.8,0,21.1,0.4,21.5-11.4l0.3-7.7H128h31.6l0.3,7.8c0.3,7.6,0.4,7.8,1.9,9.4l1.6,1.7l17.3,0.2c23,0.2,22.7,0.4,22.8-12.6l0.1-6.5l10.4-0.1c9.9-0.1,10.6-0.2,13.6-1.6c1.7-0.9,4-2.7,5.1-4c4.2-4.9,4,2.5,3.8-103.7l-0.2-95.9l-1.3-2.4c-0.7-1.4-2.5-3.5-3.9-4.8c-5-4.6,2.5-4.3-103.3-4.3C37.6,10.1,33.2,10.1,30.2,11.1z M209.8,30.3c3.4,1.6,6.3,5,7.3,8.6c0.4,1.4,0.5,27.6,0.4,80.9c-0.2,88.1,0.2,80.2-4.4,84.7c-4.2,4,0.4,3.8-85.1,3.8c-84.5,0-80.6,0.2-85-3.5c-3.8-3.2-4.7-5.9-4.7-15.6c0-7.9-0.1-8.6-1.2-9.6c-0.7-0.6-1.8-2.1-2.4-3.3c-1-1.9-1.1-3.6-1.1-14.3c0-11,0.1-12.3,1.2-14.5c0.6-1.3,1.7-2.7,2.4-3.1c1.1-0.7,1.2-1.5,1.2-25.9V93.4l-1.5-1.4c-2.9-2.7-3.2-4.2-3.2-17c0-12.8,0.3-14.4,3.2-17c1.5-1.4,1.5-1.5,1.5-10c0-7.1,0.2-9,1.1-11c1.2-2.7,4.9-6,7.8-7.1c1.5-0.6,20.5-0.8,80.8-0.8l78.8-0.1L209.8,30.3z"/>
                <path fill="content" d="M49.5,39.4c-1.4,1.1-1.4,1.4-1.7,12.9L47.5,64l-2.1,0.3l-2.1,0.3v10.3v10.3l2.2,0.5l2.2,0.5v32.3v32.3l-2.4,0.4l-2.4,0.4v10.3v10.3l2.4,0.4l2.4,0.4v11.3c0,9.3,0.2,11.6,0.9,12.6l0.9,1.3h78.1c85.1,0,79.4,0.2,80.2-3.1c0.2-0.7,0.2-35.8,0.2-77.8c-0.2-72.6-0.2-76.6-1.2-77.6c-1-1-5.1-1.1-78.5-1.2C52.7,38.3,50.8,38.3,49.5,39.4z M134.7,77c2.4,0.5,6.8,2.1,9.9,3.6c4.8,2.3,6.3,3.5,10.9,8.1c8,8,11.8,16.3,12.5,27.2c0.8,12.2-3.6,23.6-12.5,32.4c-9.3,9.3-22,13.7-34.3,12.2c-10.4-1.3-18.5-5.3-25.6-12.5c-8-8.1-11.7-16.7-12.2-27.8c-0.4-8,0.8-13.4,4.2-20.4c4.6-9.2,10.3-14.9,19.5-19.5c3-1.4,7-3,9.1-3.4C121.4,75.9,129.5,75.9,134.7,77z"/>
                <path fill="content" d="M117.9,85.6C102.5,89.2,92,102.4,92,118.2c0,10.1,3.2,17.7,10.3,24.5c13.6,12.9,33.9,12.6,47.3-0.8c6.5-6.5,9.7-14.3,9.7-23.5c0-15.3-10.3-28.7-25.1-32.6C130.5,84.9,121.5,84.7,117.9,85.6z M130.8,101.2c10.1,3,15.6,14.6,11.4,24.4c-1.7,4-6.6,8.5-10.7,9.9c-4,1.4-10.5,1-13.9-0.8c-5.1-2.6-9.1-8.3-10-14c-1.2-7.8,4.4-16.5,12.3-19.2C123.7,100.1,126.9,100,130.8,101.2z"/>
                <path fill="content" d="M123.3,110.4c-3.8,1.1-5.9,4-5.9,8.3c0,7.8,9.1,10.9,14.7,5c2-2.1,2.4-7,0.7-9.6C130.8,111,126.9,109.4,123.3,110.4z"/>
            </g>
        </g>
    </g>
</svg>