<svg width="21" height="16" viewBox="0 0 21 16" fill="none"
    xmlns="http://www.w3.org/2000/svg">
    <path d="M4.5 16C3.4 16 2.45833 15.6083 1.675 14.825C0.891667 14.0417 0.5 13.1 0.5 12V4C0.5 2.9 0.891667 1.95833 1.675 1.175C2.45833 0.391667 3.4 0 4.5 0H16.5C17.6 0 18.5417 0.391667 19.325 1.175C20.1083 1.95833 20.5 2.9 20.5 4V12C20.5 13.1 20.1083 14.0417 19.325 14.825C18.5417 15.6083 17.6 16 16.5 16H4.5ZM4.5 4H16.5C16.8667 4 17.2167 4.04167 17.55 4.125C17.8833 4.20833 18.2 4.34167 18.5 4.525V4C18.5 3.45 18.3043 2.97933 17.913 2.588C17.521 2.196 17.05 2 16.5 2H4.5C3.95 2 3.47933 2.196 3.088 2.588C2.696 2.97933 2.5 3.45 2.5 4V4.525C2.8 4.34167 3.11667 4.20833 3.45 4.125C3.78333 4.04167 4.13333 4 4.5 4ZM2.65 7.25L13.775 9.95C13.925 9.98333 14.075 9.98333 14.225 9.95C14.375 9.91667 14.5167 9.85 14.65 9.75L18.125 6.85C17.9417 6.6 17.7083 6.396 17.425 6.238C17.1417 6.07933 16.8333 6 16.5 6H4.5C4.06667 6 3.68767 6.11233 3.363 6.337C3.03767 6.56233 2.8 6.86667 2.65 7.25Z"/>
</svg>
